{"glyphs":{"0":{"ha":603,"x_min":0,"x_max":0,"o":"m 301 986 b 539 740 449 986 539 893 l 539 232 b 301 -14 539 79 449 -14 b 64 232 154 -14 64 79 l 64 740 b 301 986 64 893 154 986 m 301 850 b 211 739 243 850 211 811 l 211 233 b 301 122 211 161 243 122 b 392 233 360 122 392 161 l 392 739 b 301 850 392 811 360 850 "},"1":{"ha":468,"x_min":0,"x_max":0,"o":"m 233 0 l 233 747 l 31 747 l 31 850 b 278 972 149 858 247 899 l 381 972 l 381 0 "},"2":{"ha":529,"x_min":0,"x_max":0,"o":"m 261 986 b 488 764 403 986 488 904 l 488 728 b 367 401 488 633 460 551 l 203 139 l 488 139 l 488 0 l 35 0 l 35 125 l 253 476 b 340 733 321 586 340 654 l 340 753 b 258 850 340 817 313 850 b 176 735 204 850 176 817 l 176 686 l 35 693 l 35 760 b 261 986 35 903 119 986 "},"3":{"ha":556,"x_min":0,"x_max":0,"o":"m 272 986 b 503 747 418 986 503 897 l 503 692 b 396 510 503 600 468 539 l 396 507 b 513 299 474 475 513 406 l 513 225 b 276 -14 513 75 426 -14 b 40 219 126 -14 40 72 l 40 279 l 182 286 l 182 238 b 272 122 182 158 211 122 b 365 235 335 122 365 163 l 365 310 b 258 435 365 396 333 435 l 197 435 l 197 571 l 258 571 b 356 689 326 571 356 607 l 356 742 b 268 850 356 811 325 850 b 183 735 211 850 183 814 l 183 686 l 42 693 l 42 753 b 272 986 42 900 126 986 "},"4":{"ha":571,"x_min":0,"x_max":0,"o":"m 543 342 l 543 206 l 475 206 l 475 0 l 328 0 l 328 206 l 19 206 l 19 328 l 329 972 l 475 972 l 475 342 m 164 342 l 328 342 l 328 689 l 325 689 "},"5":{"ha":556,"x_min":0,"x_max":0,"o":"m 479 833 l 211 833 l 199 604 l 201 604 b 317 647 222 628 258 647 b 515 408 439 647 515 561 l 515 225 b 281 -14 515 75 428 -14 b 46 219 133 -14 46 72 l 46 257 l 188 264 l 188 238 b 276 122 188 158 218 122 b 368 235 338 122 368 163 l 368 399 b 276 511 368 471 336 511 b 189 429 226 511 194 482 l 188 410 l 51 415 l 82 972 l 479 972 "},"6":{"ha":588,"x_min":0,"x_max":0,"o":"m 297 986 b 528 757 443 986 528 904 l 528 714 l 386 707 l 386 742 b 300 850 386 815 358 850 b 211 750 242 850 211 817 l 211 549 l 214 549 b 342 601 238 576 281 601 b 536 364 450 601 536 524 l 536 232 b 299 -14 536 79 446 -14 b 64 232 154 -14 64 79 l 64 751 b 297 986 64 899 151 986 m 300 465 b 211 354 243 465 211 426 l 211 233 b 300 122 211 161 243 122 b 389 233 357 122 389 161 l 389 354 b 300 465 389 426 357 465 "},"7":{"ha":486,"x_min":0,"x_max":0,"o":"m 201 0 l 50 0 l 324 828 l 18 828 l 18 972 l 474 972 l 474 842 "},"8":{"ha":572,"x_min":0,"x_max":0,"o":"m 286 986 b 521 747 433 986 521 897 l 521 692 b 415 510 521 600 486 539 l 415 507 b 529 299 492 475 529 404 l 529 225 b 286 -14 529 75 439 -14 b 43 225 133 -14 43 75 l 43 299 b 157 507 43 404 81 475 l 157 510 b 51 692 86 539 51 600 l 51 747 b 286 986 51 897 139 986 m 286 850 b 199 746 231 850 199 813 l 199 675 b 286 571 199 608 231 571 b 374 675 342 571 374 608 l 374 746 b 286 850 374 813 342 850 m 286 435 b 190 322 226 435 190 394 l 190 235 b 286 122 190 163 226 122 b 382 235 346 122 382 163 l 382 322 b 286 435 382 394 346 435 "},"9":{"ha":588,"x_min":0,"x_max":0,"o":"m 290 -14 b 60 215 144 -14 60 68 l 60 258 l 201 265 l 201 231 b 288 122 201 157 229 122 b 376 222 346 122 376 156 l 376 424 l 374 424 b 246 371 350 396 307 371 b 51 608 138 371 51 449 l 51 740 b 289 986 51 893 142 986 b 524 740 433 986 524 893 l 524 221 b 290 -14 524 74 436 -14 m 288 507 b 376 618 344 507 376 546 l 376 739 b 288 850 376 811 344 850 b 199 739 231 850 199 811 l 199 618 b 288 507 199 546 231 507 "},"A":{"ha":576,"x_min":0,"x_max":0,"o":"m 400 0 l 368 221 l 206 221 l 174 0 l 26 0 l 194 972 l 382 972 l 550 0 m 225 354 l 349 354 l 289 764 l 285 764 "},"Á":{"ha":576,"x_min":0,"x_max":0,"o":"m 218 1028 l 299 1181 l 447 1181 l 326 1028 m 400 0 l 368 221 l 206 221 l 174 0 l 26 0 l 194 972 l 382 972 l 550 0 m 225 354 l 349 354 l 289 764 l 285 764 "},"Ă":{"ha":576,"x_min":0,"x_max":0,"o":"m 449 1181 b 289 1021 449 1079 390 1021 b 129 1181 188 1021 129 1079 l 224 1181 b 289 1124 224 1146 249 1124 b 354 1181 329 1124 354 1146 m 400 0 l 368 221 l 206 221 l 174 0 l 26 0 l 194 972 l 382 972 l 550 0 m 225 354 l 349 354 l 289 764 l 285 764 "},"Â":{"ha":576,"x_min":0,"x_max":0,"o":"m 350 1028 l 289 1106 l 228 1028 l 119 1028 l 214 1181 l 364 1181 l 458 1028 m 400 0 l 368 221 l 206 221 l 174 0 l 26 0 l 194 972 l 382 972 l 550 0 m 225 354 l 349 354 l 289 764 l 285 764 "},"Ä":{"ha":576,"x_min":0,"x_max":0,"o":"m 122 1038 l 122 1171 l 253 1171 l 253 1038 m 325 1038 l 325 1171 l 456 1171 l 456 1038 m 400 0 l 368 221 l 206 221 l 174 0 l 26 0 l 194 972 l 382 972 l 550 0 m 225 354 l 349 354 l 289 764 l 285 764 "},"À":{"ha":576,"x_min":0,"x_max":0,"o":"m 251 1028 l 131 1181 l 279 1181 l 360 1028 m 400 0 l 368 221 l 206 221 l 174 0 l 26 0 l 194 972 l 382 972 l 550 0 m 225 354 l 349 354 l 289 764 l 285 764 "},"Ā":{"ha":576,"x_min":0,"x_max":0,"o":"m 156 1060 l 156 1149 l 422 1149 l 422 1060 m 400 0 l 368 221 l 206 221 l 174 0 l 26 0 l 194 972 l 382 972 l 550 0 m 225 354 l 349 354 l 289 764 l 285 764 "},"Ą":{"ha":576,"x_min":0,"x_max":0,"o":"m 493 0 b 449 -74 458 -28 449 -54 b 493 -112 449 -100 467 -112 b 543 -97 511 -112 529 -107 l 550 -182 b 456 -204 518 -199 490 -204 b 335 -119 378 -204 335 -175 b 424 -3 335 -75 361 -36 l 424 0 l 400 0 l 368 221 l 206 221 l 174 0 l 26 0 l 194 972 l 382 972 l 550 0 m 225 354 l 349 354 l 289 764 l 285 764 "},"Å":{"ha":576,"x_min":0,"x_max":0,"o":"m 289 1226 b 394 1119 350 1226 394 1182 b 289 1014 394 1058 350 1014 b 183 1119 228 1014 183 1058 b 289 1226 183 1182 228 1226 m 289 1163 b 250 1119 265 1163 250 1146 b 289 1078 250 1094 265 1078 b 328 1119 313 1078 328 1094 b 289 1163 328 1146 313 1163 m 400 0 l 368 221 l 206 221 l 174 0 l 26 0 l 194 972 l 382 972 l 550 0 m 225 354 l 349 354 l 289 764 l 285 764 "},"Ã":{"ha":576,"x_min":0,"x_max":0,"o":"m 229 1172 b 294 1150 250 1172 265 1167 b 346 1131 322 1135 333 1131 b 401 1169 367 1131 382 1142 l 457 1118 b 349 1036 422 1058 392 1036 b 283 1058 328 1036 313 1042 b 232 1078 256 1074 244 1078 b 176 1039 211 1078 196 1067 l 121 1090 b 229 1172 156 1150 186 1172 m 400 0 l 368 221 l 206 221 l 174 0 l 26 0 l 194 972 l 382 972 l 550 0 m 225 354 l 349 354 l 289 764 l 285 764 "},"Æ":{"ha":850,"x_min":0,"x_max":0,"o":"m 538 836 l 538 561 l 753 561 l 753 425 l 538 425 l 538 136 l 804 136 l 804 0 l 390 0 l 390 221 l 226 221 l 161 0 l 15 0 l 319 972 l 804 972 l 804 836 m 267 354 l 390 354 l 390 768 l 388 768 "},"Ǽ":{"ha":850,"x_min":0,"x_max":0,"o":"m 393 1028 l 474 1181 l 622 1181 l 501 1028 m 538 836 l 538 561 l 753 561 l 753 425 l 538 425 l 538 136 l 804 136 l 804 0 l 390 0 l 390 221 l 226 221 l 161 0 l 15 0 l 319 972 l 804 972 l 804 836 m 267 354 l 390 354 l 390 768 l 388 768 "},"B":{"ha":579,"x_min":0,"x_max":0,"o":"m 285 972 b 519 726 438 972 519 886 l 519 708 b 410 510 519 600 488 536 l 410 507 b 540 279 501 479 540 407 l 540 246 b 296 0 540 86 454 0 l 79 0 l 79 972 m 226 571 l 272 571 b 372 689 343 571 372 607 l 372 721 b 279 836 372 800 343 836 l 226 836 m 226 136 l 290 136 b 393 256 361 136 393 174 l 393 310 b 283 435 393 396 361 435 l 226 435 "},"C":{"ha":565,"x_min":0,"x_max":0,"o":"m 290 986 b 519 753 435 986 519 900 l 519 665 l 378 658 l 378 738 b 294 850 378 815 349 850 b 211 751 240 850 211 815 l 211 221 b 294 122 211 157 240 122 b 378 235 349 122 378 157 l 378 343 l 519 336 l 519 219 b 290 -14 519 72 435 -14 b 64 219 147 -14 64 72 l 64 753 b 290 986 64 900 147 986 "},"Ć":{"ha":565,"x_min":0,"x_max":0,"o":"m 218 1028 l 299 1181 l 447 1181 l 326 1028 m 290 986 b 519 753 435 986 519 900 l 519 665 l 378 658 l 378 738 b 294 850 378 815 349 850 b 211 751 240 850 211 815 l 211 221 b 294 122 211 157 240 122 b 378 235 349 122 378 157 l 378 343 l 519 336 l 519 219 b 290 -14 519 72 435 -14 b 64 219 147 -14 64 72 l 64 753 b 290 986 64 900 147 986 "},"Č":{"ha":565,"x_min":0,"x_max":0,"o":"m 214 1028 l 119 1181 l 228 1181 l 289 1103 l 350 1181 l 458 1181 l 364 1028 m 290 986 b 519 753 435 986 519 900 l 519 665 l 378 658 l 378 738 b 294 850 378 815 349 850 b 211 751 240 850 211 815 l 211 221 b 294 122 211 157 240 122 b 378 235 349 122 378 157 l 378 343 l 519 336 l 519 219 b 290 -14 519 72 435 -14 b 64 219 147 -14 64 72 l 64 753 b 290 986 64 900 147 986 "},"Ç":{"ha":565,"x_min":0,"x_max":0,"o":"m 290 986 b 519 753 435 986 519 900 l 519 665 l 378 658 l 378 738 b 294 850 378 815 349 850 b 211 751 240 850 211 815 l 211 221 b 294 122 211 157 240 122 b 378 235 349 122 378 157 l 378 343 l 519 336 l 519 219 b 325 -12 519 85 449 1 l 325 -49 b 428 -122 394 -49 428 -72 b 288 -204 428 -178 383 -204 b 154 -118 200 -204 154 -175 l 154 -110 l 257 -104 l 257 -115 b 289 -149 257 -137 268 -149 b 321 -115 310 -149 321 -137 b 272 -74 321 -85 308 -74 l 258 -74 l 258 -12 b 64 219 135 0 64 83 l 64 753 b 290 986 64 900 147 986 "},"Ĉ":{"ha":565,"x_min":0,"x_max":0,"o":"m 350 1028 l 289 1106 l 228 1028 l 119 1028 l 214 1181 l 364 1181 l 458 1028 m 290 986 b 519 753 435 986 519 900 l 519 665 l 378 658 l 378 738 b 294 850 378 815 349 850 b 211 751 240 850 211 815 l 211 221 b 294 122 211 157 240 122 b 378 235 349 122 378 157 l 378 343 l 519 336 l 519 219 b 290 -14 519 72 435 -14 b 64 219 147 -14 64 72 l 64 753 b 290 986 64 900 147 986 "},"Ċ":{"ha":565,"x_min":0,"x_max":0,"o":"m 218 1032 l 218 1176 l 360 1176 l 360 1032 m 290 986 b 519 753 435 986 519 900 l 519 665 l 378 658 l 378 738 b 294 850 378 815 349 850 b 211 751 240 850 211 815 l 211 221 b 294 122 211 157 240 122 b 378 235 349 122 378 157 l 378 343 l 519 336 l 519 219 b 290 -14 519 72 435 -14 b 64 219 147 -14 64 72 l 64 753 b 290 986 64 900 147 986 "},"D":{"ha":599,"x_min":0,"x_max":0,"o":"m 290 972 b 535 726 449 972 535 886 l 535 246 b 290 0 535 86 449 0 l 79 0 l 79 972 m 226 136 l 285 136 b 388 256 356 136 388 174 l 388 717 b 285 836 388 799 356 836 l 226 836 "},"Ð":{"ha":608,"x_min":0,"x_max":0,"o":"m 300 972 b 544 726 458 972 544 886 l 544 246 b 300 0 544 86 458 0 l 89 0 l 89 417 l 28 417 l 28 553 l 89 553 l 89 972 m 236 553 l 324 553 l 324 417 l 236 417 l 236 136 l 294 136 b 397 256 365 136 397 174 l 397 717 b 294 836 397 799 365 836 l 236 836 "},"Ď":{"ha":599,"x_min":0,"x_max":0,"o":"m 199 1028 l 104 1181 l 213 1181 l 274 1103 l 335 1181 l 443 1181 l 349 1028 m 290 972 b 535 726 449 972 535 886 l 535 246 b 290 0 535 86 449 0 l 79 0 l 79 972 m 226 136 l 285 136 b 388 256 356 136 388 174 l 388 717 b 285 836 388 799 356 836 l 226 836 "},"Đ":{"ha":608,"x_min":0,"x_max":0,"o":"m 300 972 b 544 726 458 972 544 886 l 544 246 b 300 0 544 86 458 0 l 89 0 l 89 417 l 28 417 l 28 553 l 89 553 l 89 972 m 236 553 l 324 553 l 324 417 l 236 417 l 236 136 l 294 136 b 397 256 365 136 397 174 l 397 717 b 294 836 397 799 365 836 l 236 836 "},"E":{"ha":539,"x_min":0,"x_max":0,"o":"m 226 836 l 226 561 l 442 561 l 442 425 l 226 425 l 226 136 l 493 136 l 493 0 l 79 0 l 79 972 l 493 972 l 493 836 "},"É":{"ha":539,"x_min":0,"x_max":0,"o":"m 214 1028 l 294 1181 l 443 1181 l 322 1028 m 226 836 l 226 561 l 442 561 l 442 425 l 226 425 l 226 136 l 493 136 l 493 0 l 79 0 l 79 972 l 493 972 l 493 836 "},"Ĕ":{"ha":539,"x_min":0,"x_max":0,"o":"m 444 1181 b 285 1021 444 1079 386 1021 b 125 1181 183 1021 125 1079 l 219 1181 b 285 1124 219 1146 244 1124 b 350 1181 325 1124 350 1146 m 226 836 l 226 561 l 442 561 l 442 425 l 226 425 l 226 136 l 493 136 l 493 0 l 79 0 l 79 972 l 493 972 l 493 836 "},"Ě":{"ha":539,"x_min":0,"x_max":0,"o":"m 210 1028 l 115 1181 l 224 1181 l 285 1103 l 346 1181 l 454 1181 l 360 1028 m 226 836 l 226 561 l 442 561 l 442 425 l 226 425 l 226 136 l 493 136 l 493 0 l 79 0 l 79 972 l 493 972 l 493 836 "},"Ê":{"ha":539,"x_min":0,"x_max":0,"o":"m 346 1028 l 285 1106 l 224 1028 l 115 1028 l 210 1181 l 360 1181 l 454 1028 m 226 836 l 226 561 l 442 561 l 442 425 l 226 425 l 226 136 l 493 136 l 493 0 l 79 0 l 79 972 l 493 972 l 493 836 "},"Ë":{"ha":539,"x_min":0,"x_max":0,"o":"m 118 1038 l 118 1171 l 249 1171 l 249 1038 m 321 1038 l 321 1171 l 451 1171 l 451 1038 m 226 836 l 226 561 l 442 561 l 442 425 l 226 425 l 226 136 l 493 136 l 493 0 l 79 0 l 79 972 l 493 972 l 493 836 "},"Ė":{"ha":539,"x_min":0,"x_max":0,"o":"m 214 1032 l 214 1176 l 356 1176 l 356 1032 m 226 836 l 226 561 l 442 561 l 442 425 l 226 425 l 226 136 l 493 136 l 493 0 l 79 0 l 79 972 l 493 972 l 493 836 "},"È":{"ha":539,"x_min":0,"x_max":0,"o":"m 247 1028 l 126 1181 l 275 1181 l 356 1028 m 226 836 l 226 561 l 442 561 l 442 425 l 226 425 l 226 136 l 493 136 l 493 0 l 79 0 l 79 972 l 493 972 l 493 836 "},"Ē":{"ha":539,"x_min":0,"x_max":0,"o":"m 151 1060 l 151 1149 l 418 1149 l 418 1060 m 226 836 l 226 561 l 442 561 l 442 425 l 226 425 l 226 136 l 493 136 l 493 0 l 79 0 l 79 972 l 493 972 l 493 836 "},"Ę":{"ha":539,"x_min":0,"x_max":0,"o":"m 226 836 l 226 561 l 442 561 l 442 425 l 226 425 l 226 136 l 493 136 l 493 0 l 436 0 b 392 -74 401 -28 392 -54 b 436 -112 392 -100 410 -112 b 486 -97 454 -112 472 -107 l 493 -182 b 399 -204 461 -199 433 -204 b 278 -119 321 -204 278 -175 b 367 -3 278 -76 306 -36 l 367 0 l 79 0 l 79 972 l 493 972 l 493 836 "},"F":{"ha":504,"x_min":0,"x_max":0,"o":"m 226 836 l 226 561 l 435 561 l 435 425 l 226 425 l 226 0 l 79 0 l 79 972 l 486 972 l 486 836 "},"G":{"ha":585,"x_min":0,"x_max":0,"o":"m 293 986 b 525 753 440 986 525 900 l 525 686 l 383 679 l 383 738 b 297 850 383 815 354 850 b 211 751 240 850 211 815 l 211 221 b 296 122 211 157 239 122 b 381 235 353 122 381 157 l 381 401 l 297 401 l 297 538 l 525 538 l 525 219 b 293 -14 525 72 440 -14 b 64 219 147 -14 64 72 l 64 753 b 293 986 64 900 147 986 "},"Ğ":{"ha":585,"x_min":0,"x_max":0,"o":"m 453 1181 b 293 1021 453 1079 394 1021 b 133 1181 192 1021 133 1079 l 228 1181 b 293 1124 228 1146 253 1124 b 358 1181 333 1124 358 1146 m 293 986 b 525 753 440 986 525 900 l 525 686 l 383 679 l 383 738 b 297 850 383 815 354 850 b 211 751 240 850 211 815 l 211 221 b 296 122 211 157 239 122 b 381 235 353 122 381 157 l 381 401 l 297 401 l 297 538 l 525 538 l 525 219 b 293 -14 525 72 440 -14 b 64 219 147 -14 64 72 l 64 753 b 293 986 64 900 147 986 "},"Ĝ":{"ha":585,"x_min":0,"x_max":0,"o":"m 354 1028 l 293 1106 l 232 1028 l 124 1028 l 218 1181 l 368 1181 l 463 1028 m 293 986 b 525 753 440 986 525 900 l 525 686 l 383 679 l 383 738 b 297 850 383 815 354 850 b 211 751 240 850 211 815 l 211 221 b 296 122 211 157 239 122 b 381 235 353 122 381 157 l 381 401 l 297 401 l 297 538 l 525 538 l 525 219 b 293 -14 525 72 440 -14 b 64 219 147 -14 64 72 l 64 753 b 293 986 64 900 147 986 "},"Ģ":{"ha":585,"x_min":0,"x_max":0,"o":"m 293 986 b 525 753 440 986 525 900 l 525 686 l 383 679 l 383 738 b 297 850 383 815 354 850 b 211 751 240 850 211 815 l 211 221 b 296 122 211 157 239 122 b 381 235 353 122 381 157 l 381 401 l 297 401 l 297 538 l 525 538 l 525 219 b 293 -14 525 72 440 -14 b 64 219 147 -14 64 72 l 64 753 b 293 986 64 900 147 986 m 292 -283 l 222 -283 l 268 -183 l 222 -183 l 222 -56 l 364 -56 l 364 -171 "},"Ġ":{"ha":585,"x_min":0,"x_max":0,"o":"m 222 1032 l 222 1176 l 364 1176 l 364 1032 m 293 986 b 525 753 440 986 525 900 l 525 686 l 383 679 l 383 738 b 297 850 383 815 354 850 b 211 751 240 850 211 815 l 211 221 b 296 122 211 157 239 122 b 381 235 353 122 381 157 l 381 401 l 297 401 l 297 538 l 525 538 l 525 219 b 293 -14 525 72 440 -14 b 64 219 147 -14 64 72 l 64 753 b 293 986 64 900 147 986 "},"H":{"ha":628,"x_min":0,"x_max":0,"o":"m 401 0 l 401 424 l 226 424 l 226 0 l 79 0 l 79 972 l 226 972 l 226 563 l 401 563 l 401 972 l 549 972 l 549 0 "},"Ħ":{"ha":642,"x_min":0,"x_max":0,"o":"m 617 835 l 617 707 l 556 707 l 556 0 l 408 0 l 408 424 l 233 424 l 233 0 l 86 0 l 86 707 l 25 707 l 25 835 l 86 835 l 86 972 l 233 972 l 233 835 l 408 835 l 408 972 l 556 972 l 556 835 m 233 563 l 408 563 l 408 707 l 233 707 "},"Ĥ":{"ha":628,"x_min":0,"x_max":0,"o":"m 375 1028 l 314 1106 l 253 1028 l 144 1028 l 239 1181 l 389 1181 l 483 1028 m 401 0 l 401 424 l 226 424 l 226 0 l 79 0 l 79 972 l 226 972 l 226 563 l 401 563 l 401 972 l 549 972 l 549 0 "},"I":{"ha":306,"x_min":0,"x_max":0,"o":"m 79 0 l 79 972 l 226 972 l 226 0 "},"Ĳ":{"ha":724,"x_min":0,"x_max":0,"o":"m 79 0 l 79 972 l 226 972 l 226 0 m 651 226 b 425 -14 651 71 578 -14 b 326 -1 390 -14 357 -10 l 335 133 b 407 122 353 128 378 122 b 504 231 475 122 504 156 l 504 972 l 651 972 "},"Í":{"ha":306,"x_min":0,"x_max":0,"o":"m 82 1028 l 163 1181 l 311 1181 l 190 1028 m 79 0 l 79 972 l 226 972 l 226 0 "},"Ĭ":{"ha":306,"x_min":0,"x_max":0,"o":"m 313 1181 b 153 1021 313 1079 254 1021 b -7 1181 51 1021 -7 1079 l 88 1181 b 153 1124 88 1146 113 1124 b 218 1181 193 1124 218 1146 m 79 0 l 79 972 l 226 972 l 226 0 "},"Î":{"ha":306,"x_min":0,"x_max":0,"o":"m 214 1028 l 153 1106 l 92 1028 l -17 1028 l 78 1181 l 228 1181 l 322 1028 m 79 0 l 79 972 l 226 972 l 226 0 "},"Ï":{"ha":306,"x_min":0,"x_max":0,"o":"m -14 1038 l -14 1171 l 117 1171 l 117 1038 m 189 1038 l 189 1171 l 319 1171 l 319 1038 m 79 0 l 79 972 l 226 972 l 226 0 "},"İ":{"ha":306,"x_min":0,"x_max":0,"o":"m 82 1032 l 82 1176 l 224 1176 l 224 1032 m 79 0 l 79 972 l 226 972 l 226 0 "},"Ì":{"ha":306,"x_min":0,"x_max":0,"o":"m 115 1028 l -6 1181 l 143 1181 l 224 1028 m 79 0 l 79 972 l 226 972 l 226 0 "},"Ī":{"ha":306,"x_min":0,"x_max":0,"o":"m 19 1060 l 19 1149 l 286 1149 l 286 1060 m 79 0 l 79 972 l 226 972 l 226 0 "},"Į":{"ha":306,"x_min":0,"x_max":0,"o":"m 200 0 b 156 -74 165 -28 156 -54 b 200 -112 156 -100 174 -112 b 250 -97 218 -112 236 -107 l 257 -182 b 163 -204 225 -199 197 -204 b 42 -119 85 -204 42 -175 b 131 -3 42 -76 69 -36 l 131 0 l 79 0 l 79 972 l 226 972 l 226 0 "},"Ĩ":{"ha":306,"x_min":0,"x_max":0,"o":"m 93 1172 b 158 1150 114 1172 129 1167 b 210 1131 186 1135 197 1131 b 265 1169 231 1131 246 1142 l 321 1118 b 213 1036 286 1058 256 1036 b 147 1058 192 1036 176 1042 b 96 1078 119 1074 108 1078 b 40 1039 75 1078 60 1067 l -15 1090 b 93 1172 19 1150 50 1172 m 79 0 l 79 972 l 226 972 l 226 0 "},"J":{"ha":418,"x_min":0,"x_max":0,"o":"m 346 226 b 119 -14 346 71 272 -14 b 21 -1 85 -14 51 -10 l 29 133 b 101 122 47 128 72 122 b 199 231 169 122 199 156 l 199 972 l 346 972 "},"Ĵ":{"ha":418,"x_min":0,"x_max":0,"o":"m 333 1028 l 272 1106 l 211 1028 l 103 1028 l 197 1181 l 347 1181 l 442 1028 m 346 226 b 119 -14 346 71 272 -14 b 21 -1 85 -14 51 -10 l 29 133 b 101 122 47 128 72 122 b 199 231 169 122 199 156 l 199 972 l 346 972 "},"K":{"ha":586,"x_min":0,"x_max":0,"o":"m 578 0 l 421 0 l 276 425 l 213 300 l 213 0 l 65 0 l 65 972 l 213 972 l 213 567 l 215 567 l 419 972 l 574 972 l 374 586 "},"Ķ":{"ha":586,"x_min":0,"x_max":0,"o":"m 578 0 l 421 0 l 276 425 l 213 300 l 213 0 l 65 0 l 65 972 l 213 972 l 213 567 l 215 567 l 419 972 l 574 972 l 374 586 m 311 -283 l 242 -283 l 288 -183 l 242 -183 l 242 -56 l 383 -56 l 383 -171 "},"L":{"ha":488,"x_min":0,"x_max":0,"o":"m 472 139 l 472 0 l 79 0 l 79 972 l 226 972 l 226 139 "},"Ĺ":{"ha":488,"x_min":0,"x_max":0,"o":"m 82 1028 l 163 1181 l 311 1181 l 190 1028 m 472 139 l 472 0 l 79 0 l 79 972 l 226 972 l 226 139 "},"Ľ":{"ha":488,"x_min":0,"x_max":0,"o":"m 472 139 l 472 0 l 79 0 l 79 972 l 226 972 l 226 139 m 367 744 l 297 744 l 343 844 l 297 844 l 297 972 l 439 972 l 439 857 "},"Ļ":{"ha":488,"x_min":0,"x_max":0,"o":"m 472 139 l 472 0 l 79 0 l 79 972 l 226 972 l 226 139 m 276 -283 l 207 -283 l 253 -183 l 207 -183 l 207 -56 l 349 -56 l 349 -171 "},"Ŀ":{"ha":488,"x_min":0,"x_max":0,"o":"m 472 139 l 472 0 l 79 0 l 79 972 l 226 972 l 226 139 m 319 442 l 319 597 l 475 597 l 475 442 "},"Ł":{"ha":496,"x_min":0,"x_max":0,"o":"m 415 722 l 415 583 l 236 454 l 236 139 l 482 139 l 482 0 l 89 0 l 89 349 l 29 306 l 29 444 l 89 488 l 89 972 l 236 972 l 236 593 "},"M":{"ha":782,"x_min":0,"x_max":0,"o":"m 556 0 l 556 675 l 553 675 l 431 139 l 343 139 l 221 675 l 218 675 l 218 0 l 79 0 l 79 972 l 272 972 l 388 450 l 390 450 l 504 972 l 703 972 l 703 0 "},"N":{"ha":638,"x_min":0,"x_max":0,"o":"m 414 0 l 221 644 l 218 644 l 218 0 l 79 0 l 79 972 l 243 972 l 417 393 l 419 393 l 419 972 l 558 972 l 558 0 "},"Ń":{"ha":638,"x_min":0,"x_max":0,"o":"m 249 1028 l 329 1181 l 478 1181 l 357 1028 m 414 0 l 221 644 l 218 644 l 218 0 l 79 0 l 79 972 l 243 972 l 417 393 l 419 393 l 419 972 l 558 972 l 558 0 "},"Ň":{"ha":638,"x_min":0,"x_max":0,"o":"m 244 1028 l 150 1181 l 258 1181 l 319 1103 l 381 1181 l 489 1181 l 394 1028 m 414 0 l 221 644 l 218 644 l 218 0 l 79 0 l 79 972 l 243 972 l 417 393 l 419 393 l 419 972 l 558 972 l 558 0 "},"Ņ":{"ha":638,"x_min":0,"x_max":0,"o":"m 414 0 l 221 644 l 218 644 l 218 0 l 79 0 l 79 972 l 243 972 l 417 393 l 419 393 l 419 972 l 558 972 l 558 0 m 318 -283 l 249 -283 l 294 -183 l 249 -183 l 249 -56 l 390 -56 l 390 -171 "},"Ŋ":{"ha":638,"x_min":0,"x_max":0,"o":"m 558 0 b 332 -240 558 -156 485 -240 b 233 -228 297 -240 264 -236 l 242 -93 b 314 -104 260 -99 285 -104 b 411 4 382 -104 411 -71 l 411 8 l 221 644 l 218 644 l 218 0 l 79 0 l 79 972 l 243 972 l 417 393 l 419 393 l 419 972 l 558 972 "},"Ñ":{"ha":638,"x_min":0,"x_max":0,"o":"m 260 1172 b 325 1150 281 1172 296 1167 b 376 1131 353 1135 364 1131 b 432 1169 397 1131 413 1142 l 488 1118 b 379 1036 453 1058 422 1036 b 314 1058 358 1036 343 1042 b 263 1078 286 1074 275 1078 b 207 1039 242 1078 226 1067 l 151 1090 b 260 1172 186 1150 217 1172 m 414 0 l 221 644 l 218 644 l 218 0 l 79 0 l 79 972 l 243 972 l 417 393 l 419 393 l 419 972 l 558 972 l 558 0 "},"O":{"ha":603,"x_min":0,"x_max":0,"o":"m 301 986 b 539 740 449 986 539 893 l 539 232 b 301 -14 539 79 449 -14 b 64 232 154 -14 64 79 l 64 740 b 301 986 64 893 154 986 m 301 850 b 211 739 243 850 211 811 l 211 233 b 301 122 211 161 243 122 b 392 233 360 122 392 161 l 392 739 b 301 850 392 811 360 850 "},"Ó":{"ha":603,"x_min":0,"x_max":0,"o":"m 231 1028 l 311 1181 l 460 1181 l 339 1028 m 301 986 b 539 740 449 986 539 893 l 539 232 b 301 -14 539 79 449 -14 b 64 232 154 -14 64 79 l 64 740 b 301 986 64 893 154 986 m 301 850 b 211 739 243 850 211 811 l 211 233 b 301 122 211 161 243 122 b 392 233 360 122 392 161 l 392 739 b 301 850 392 811 360 850 "},"Ŏ":{"ha":603,"x_min":0,"x_max":0,"o":"m 461 1181 b 301 1021 461 1079 403 1021 b 142 1181 200 1021 142 1079 l 236 1181 b 301 1124 236 1146 261 1124 b 367 1181 342 1124 367 1146 m 301 986 b 539 740 449 986 539 893 l 539 232 b 301 -14 539 79 449 -14 b 64 232 154 -14 64 79 l 64 740 b 301 986 64 893 154 986 m 301 850 b 211 739 243 850 211 811 l 211 233 b 301 122 211 161 243 122 b 392 233 360 122 392 161 l 392 739 b 301 850 392 811 360 850 "},"Ô":{"ha":603,"x_min":0,"x_max":0,"o":"m 363 1028 l 301 1106 l 240 1028 l 132 1028 l 226 1181 l 376 1181 l 471 1028 m 301 986 b 539 740 449 986 539 893 l 539 232 b 301 -14 539 79 449 -14 b 64 232 154 -14 64 79 l 64 740 b 301 986 64 893 154 986 m 301 850 b 211 739 243 850 211 811 l 211 233 b 301 122 211 161 243 122 b 392 233 360 122 392 161 l 392 739 b 301 850 392 811 360 850 "},"Ö":{"ha":603,"x_min":0,"x_max":0,"o":"m 135 1038 l 135 1171 l 265 1171 l 265 1038 m 338 1038 l 338 1171 l 468 1171 l 468 1038 m 301 986 b 539 740 449 986 539 893 l 539 232 b 301 -14 539 79 449 -14 b 64 232 154 -14 64 79 l 64 740 b 301 986 64 893 154 986 m 301 850 b 211 739 243 850 211 811 l 211 233 b 301 122 211 161 243 122 b 392 233 360 122 392 161 l 392 739 b 301 850 392 811 360 850 "},"Ò":{"ha":603,"x_min":0,"x_max":0,"o":"m 264 1028 l 143 1181 l 292 1181 l 372 1028 m 301 986 b 539 740 449 986 539 893 l 539 232 b 301 -14 539 79 449 -14 b 64 232 154 -14 64 79 l 64 740 b 301 986 64 893 154 986 m 301 850 b 211 739 243 850 211 811 l 211 233 b 301 122 211 161 243 122 b 392 233 360 122 392 161 l 392 739 b 301 850 392 811 360 850 "},"Ő":{"ha":603,"x_min":0,"x_max":0,"o":"m 139 1028 l 219 1181 l 357 1181 l 236 1028 m 333 1028 l 414 1181 l 551 1181 l 431 1028 m 301 986 b 539 740 449 986 539 893 l 539 232 b 301 -14 539 79 449 -14 b 64 232 154 -14 64 79 l 64 740 b 301 986 64 893 154 986 m 301 850 b 211 739 243 850 211 811 l 211 233 b 301 122 211 161 243 122 b 392 233 360 122 392 161 l 392 739 b 301 850 392 811 360 850 "},"Ō":{"ha":603,"x_min":0,"x_max":0,"o":"m 168 1060 l 168 1149 l 435 1149 l 435 1060 m 301 986 b 539 740 449 986 539 893 l 539 232 b 301 -14 539 79 449 -14 b 64 232 154 -14 64 79 l 64 740 b 301 986 64 893 154 986 m 301 850 b 211 739 243 850 211 811 l 211 233 b 301 122 211 161 243 122 b 392 233 360 122 392 161 l 392 739 b 301 850 392 811 360 850 "},"Ø":{"ha":603,"x_min":0,"x_max":0,"o":"m 513 868 b 539 740 529 832 539 789 l 539 232 b 301 -14 539 79 449 -14 b 164 22 247 -14 200 -1 l 149 -14 l 57 24 l 90 104 b 64 232 74 140 64 183 l 64 740 b 301 986 64 893 154 986 b 439 950 356 986 403 974 l 454 986 l 546 949 m 301 850 b 211 739 243 850 211 811 l 211 400 l 213 400 l 379 804 b 301 850 365 835 339 850 m 224 168 b 301 122 238 138 264 122 b 392 233 360 122 392 161 l 392 572 l 390 572 "},"Ǿ":{"ha":603,"x_min":0,"x_max":0,"o":"m 231 1028 l 311 1181 l 460 1181 l 339 1028 m 513 868 b 539 740 529 832 539 789 l 539 232 b 301 -14 539 79 449 -14 b 164 22 247 -14 200 -1 l 149 -14 l 57 24 l 90 104 b 64 232 74 140 64 183 l 64 740 b 301 986 64 893 154 986 b 439 950 356 986 403 974 l 454 986 l 546 949 m 301 850 b 211 739 243 850 211 811 l 211 400 l 213 400 l 379 804 b 301 850 365 835 339 850 m 224 168 b 301 122 238 138 264 122 b 392 233 360 122 392 161 l 392 572 l 390 572 "},"Õ":{"ha":603,"x_min":0,"x_max":0,"o":"m 242 1172 b 307 1150 263 1172 278 1167 b 358 1131 335 1135 346 1131 b 414 1169 379 1131 394 1142 l 469 1118 b 361 1036 435 1058 404 1036 b 296 1058 340 1036 325 1042 b 244 1078 268 1074 257 1078 b 189 1039 224 1078 208 1067 l 133 1090 b 242 1172 168 1150 199 1172 m 301 986 b 539 740 449 986 539 893 l 539 232 b 301 -14 539 79 449 -14 b 64 232 154 -14 64 79 l 64 740 b 301 986 64 893 154 986 m 301 850 b 211 739 243 850 211 811 l 211 233 b 301 122 211 161 243 122 b 392 233 360 122 392 161 l 392 739 b 301 850 392 811 360 850 "},"Œ":{"ha":833,"x_min":0,"x_max":0,"o":"m 519 836 l 519 561 l 735 561 l 735 425 l 519 425 l 519 136 l 786 136 l 786 0 l 308 0 b 64 246 150 0 64 86 l 64 726 b 308 972 64 886 150 972 l 786 972 l 786 836 m 314 836 b 211 717 243 836 211 799 l 211 256 b 314 136 211 174 243 136 l 372 136 l 372 836 "},"P":{"ha":565,"x_min":0,"x_max":0,"o":"m 292 972 b 536 726 450 972 536 886 l 536 649 b 292 403 536 489 450 403 l 226 403 l 226 0 l 79 0 l 79 972 m 226 539 l 286 539 b 389 658 357 539 389 576 l 389 717 b 286 836 389 799 357 836 l 226 836 "},"Þ":{"ha":565,"x_min":0,"x_max":0,"o":"m 292 833 b 536 588 450 833 536 747 l 536 510 b 292 264 536 350 450 264 l 226 264 l 226 0 l 79 0 l 79 972 l 226 972 l 226 833 m 226 400 l 286 400 b 389 519 357 400 389 438 l 389 578 b 286 697 389 660 357 697 l 226 697 "},"Q":{"ha":603,"x_min":0,"x_max":0,"o":"m 303 986 b 540 740 450 986 540 893 l 540 232 b 500 81 540 172 526 121 b 575 57 517 63 543 57 l 561 -79 b 399 1 489 -79 433 -56 b 303 -14 371 -8 338 -14 b 65 232 156 -14 65 79 l 65 740 b 303 986 65 893 156 986 m 303 850 b 213 739 244 850 213 811 l 213 233 b 303 122 213 161 244 122 b 393 233 361 122 393 161 l 393 739 b 303 850 393 811 361 850 "},"R":{"ha":581,"x_min":0,"x_max":0,"o":"m 281 411 l 213 411 l 213 0 l 65 0 l 65 972 l 278 972 b 522 726 436 972 522 886 l 522 657 b 418 443 522 554 486 482 l 553 0 l 397 0 m 213 547 l 272 547 b 375 667 343 547 375 585 l 375 717 b 272 836 375 799 343 836 l 213 836 "},"Ŕ":{"ha":581,"x_min":0,"x_max":0,"o":"m 190 1028 l 271 1181 l 419 1181 l 299 1028 m 281 411 l 213 411 l 213 0 l 65 0 l 65 972 l 278 972 b 522 726 436 972 522 886 l 522 657 b 418 443 522 554 486 482 l 553 0 l 397 0 m 213 547 l 272 547 b 375 667 343 547 375 585 l 375 717 b 272 836 375 799 343 836 l 213 836 "},"Ř":{"ha":581,"x_min":0,"x_max":0,"o":"m 186 1028 l 92 1181 l 200 1181 l 261 1103 l 322 1181 l 431 1181 l 336 1028 m 281 411 l 213 411 l 213 0 l 65 0 l 65 972 l 278 972 b 522 726 436 972 522 886 l 522 657 b 418 443 522 554 486 482 l 553 0 l 397 0 m 213 547 l 272 547 b 375 667 343 547 375 585 l 375 717 b 272 836 375 799 343 836 l 213 836 "},"Ŗ":{"ha":581,"x_min":0,"x_max":0,"o":"m 281 411 l 213 411 l 213 0 l 65 0 l 65 972 l 278 972 b 522 726 436 972 522 886 l 522 657 b 418 443 522 554 486 482 l 553 0 l 397 0 m 213 547 l 272 547 b 375 667 343 547 375 585 l 375 717 b 272 836 375 799 343 836 l 213 836 m 300 -283 l 231 -283 l 276 -183 l 231 -183 l 231 -56 l 372 -56 l 372 -171 "},"S":{"ha":497,"x_min":0,"x_max":0,"o":"m 251 986 b 471 768 392 986 471 907 l 471 743 l 329 729 l 329 765 b 254 850 329 821 303 850 b 179 765 206 850 179 821 l 179 753 b 303 564 179 696 204 647 b 488 253 438 450 488 369 l 488 204 b 260 -14 488 65 406 -14 b 32 204 114 -14 32 65 l 32 269 l 174 283 l 174 214 b 257 122 174 153 201 122 b 340 214 313 122 340 153 l 340 246 b 213 439 340 307 311 356 b 32 747 78 553 32 633 l 32 768 b 251 986 32 907 111 986 "},"Ś":{"ha":497,"x_min":0,"x_max":0,"o":"m 183 1028 l 264 1181 l 413 1181 l 292 1028 m 251 986 b 471 768 392 986 471 907 l 471 743 l 329 729 l 329 765 b 254 850 329 821 303 850 b 179 765 206 850 179 821 l 179 753 b 303 564 179 696 204 647 b 488 253 438 450 488 369 l 488 204 b 260 -14 488 65 406 -14 b 32 204 114 -14 32 65 l 32 269 l 174 283 l 174 214 b 257 122 174 153 201 122 b 340 214 313 122 340 153 l 340 246 b 213 439 340 307 311 356 b 32 747 78 553 32 633 l 32 768 b 251 986 32 907 111 986 "},"Š":{"ha":497,"x_min":0,"x_max":0,"o":"m 179 1028 l 85 1181 l 193 1181 l 254 1103 l 315 1181 l 424 1181 l 329 1028 m 251 986 b 471 768 392 986 471 907 l 471 743 l 329 729 l 329 765 b 254 850 329 821 303 850 b 179 765 206 850 179 821 l 179 753 b 303 564 179 696 204 647 b 488 253 438 450 488 369 l 488 204 b 260 -14 488 65 406 -14 b 32 204 114 -14 32 65 l 32 269 l 174 283 l 174 214 b 257 122 174 153 201 122 b 340 214 313 122 340 153 l 340 246 b 213 439 340 307 311 356 b 32 747 78 553 32 633 l 32 768 b 251 986 32 907 111 986 "},"Ş":{"ha":496,"x_min":0,"x_max":0,"o":"m 251 986 b 471 769 388 986 471 913 l 471 740 l 329 726 l 329 757 b 253 850 329 824 304 850 b 179 768 210 850 179 824 l 179 747 b 306 564 179 693 208 651 b 483 254 438 444 483 367 l 483 208 b 289 -12 483 76 407 -1 l 289 -49 b 392 -122 358 -49 392 -72 b 251 -204 392 -178 347 -204 b 118 -118 164 -204 118 -175 l 118 -110 l 221 -104 l 221 -115 b 253 -149 221 -137 232 -149 b 285 -115 274 -149 285 -137 b 236 -74 285 -85 272 -74 l 222 -74 l 221 -12 b 31 203 106 0 31 74 l 31 272 l 172 286 l 172 215 b 257 122 172 150 204 122 b 336 218 301 122 336 149 l 336 249 b 210 439 336 310 307 351 b 32 742 78 558 32 636 l 32 764 b 251 986 32 907 115 986 "},"Ŝ":{"ha":497,"x_min":0,"x_max":0,"o":"m 315 1028 l 254 1106 l 193 1028 l 85 1028 l 179 1181 l 329 1181 l 424 1028 m 251 986 b 471 768 392 986 471 907 l 471 743 l 329 729 l 329 765 b 254 850 329 821 303 850 b 179 765 206 850 179 821 l 179 753 b 303 564 179 696 204 647 b 488 253 438 450 488 369 l 488 204 b 260 -14 488 65 406 -14 b 32 204 114 -14 32 65 l 32 269 l 174 283 l 174 214 b 257 122 174 153 201 122 b 340 214 313 122 340 153 l 340 246 b 213 439 340 307 311 356 b 32 747 78 553 32 633 l 32 768 b 251 986 32 907 111 986 "},"Ș":{"ha":497,"x_min":0,"x_max":0,"o":"m 251 986 b 471 768 392 986 471 907 l 471 743 l 329 729 l 329 765 b 254 850 329 821 303 850 b 179 765 206 850 179 821 l 179 753 b 303 564 179 696 204 647 b 488 253 438 450 488 369 l 488 204 b 260 -14 488 65 406 -14 b 32 204 114 -14 32 65 l 32 269 l 174 283 l 174 214 b 257 122 174 153 201 122 b 340 214 313 122 340 153 l 340 246 b 213 439 340 307 311 356 b 32 747 78 553 32 633 l 32 768 b 251 986 32 907 111 986 m 253 -283 l 183 -283 l 229 -183 l 183 -183 l 183 -56 l 325 -56 l 325 -171 "},"T":{"ha":489,"x_min":0,"x_max":0,"o":"m 318 833 l 318 0 l 171 0 l 171 833 l 14 833 l 14 972 l 475 972 l 475 833 "},"Ŧ":{"ha":489,"x_min":0,"x_max":0,"o":"m 318 833 l 318 549 l 422 549 l 422 421 l 318 421 l 318 0 l 171 0 l 171 421 l 67 421 l 67 549 l 171 549 l 171 833 l 14 833 l 14 972 l 475 972 l 475 833 "},"Ť":{"ha":489,"x_min":0,"x_max":0,"o":"m 169 1028 l 75 1181 l 183 1181 l 244 1103 l 306 1181 l 414 1181 l 319 1028 m 318 833 l 318 0 l 171 0 l 171 833 l 14 833 l 14 972 l 475 972 l 475 833 "},"Ţ":{"ha":489,"x_min":0,"x_max":0,"o":"m 318 833 l 318 0 l 279 0 l 279 -49 b 382 -122 349 -49 382 -72 b 242 -204 382 -178 338 -204 b 108 -118 154 -204 108 -175 l 108 -110 l 211 -104 l 211 -115 b 243 -149 211 -137 222 -149 b 275 -115 264 -149 275 -137 b 226 -74 275 -85 263 -74 l 213 -74 l 213 0 l 171 0 l 171 833 l 14 833 l 14 972 l 475 972 l 475 833 "},"Ț":{"ha":489,"x_min":0,"x_max":0,"o":"m 318 833 l 318 0 l 171 0 l 171 833 l 14 833 l 14 972 l 475 972 l 475 833 m 243 -283 l 174 -283 l 219 -183 l 174 -183 l 174 -56 l 315 -56 l 315 -171 "},"U":{"ha":597,"x_min":0,"x_max":0,"o":"m 526 218 b 297 -14 526 65 439 -14 b 71 218 158 -14 71 65 l 71 972 l 213 972 l 213 222 b 296 125 213 151 244 125 b 379 222 347 125 379 151 l 379 972 l 526 972 "},"Ú":{"ha":597,"x_min":0,"x_max":0,"o":"m 228 1028 l 308 1181 l 457 1181 l 336 1028 m 526 218 b 297 -14 526 65 439 -14 b 71 218 158 -14 71 65 l 71 972 l 213 972 l 213 222 b 296 125 213 151 244 125 b 379 222 347 125 379 151 l 379 972 l 526 972 "},"Ŭ":{"ha":597,"x_min":0,"x_max":0,"o":"m 458 1181 b 299 1021 458 1079 400 1021 b 139 1181 197 1021 139 1079 l 233 1181 b 299 1124 233 1146 258 1124 b 364 1181 339 1124 364 1146 m 526 218 b 297 -14 526 65 439 -14 b 71 218 158 -14 71 65 l 71 972 l 213 972 l 213 222 b 296 125 213 151 244 125 b 379 222 347 125 379 151 l 379 972 l 526 972 "},"Û":{"ha":597,"x_min":0,"x_max":0,"o":"m 360 1028 l 299 1106 l 238 1028 l 129 1028 l 224 1181 l 374 1181 l 468 1028 m 526 218 b 297 -14 526 65 439 -14 b 71 218 158 -14 71 65 l 71 972 l 213 972 l 213 222 b 296 125 213 151 244 125 b 379 222 347 125 379 151 l 379 972 l 526 972 "},"Ü":{"ha":597,"x_min":0,"x_max":0,"o":"m 132 1038 l 132 1171 l 263 1171 l 263 1038 m 335 1038 l 335 1171 l 465 1171 l 465 1038 m 526 218 b 297 -14 526 65 439 -14 b 71 218 158 -14 71 65 l 71 972 l 213 972 l 213 222 b 296 125 213 151 244 125 b 379 222 347 125 379 151 l 379 972 l 526 972 "},"Ù":{"ha":597,"x_min":0,"x_max":0,"o":"m 261 1028 l 140 1181 l 289 1181 l 369 1028 m 526 218 b 297 -14 526 65 439 -14 b 71 218 158 -14 71 65 l 71 972 l 213 972 l 213 222 b 296 125 213 151 244 125 b 379 222 347 125 379 151 l 379 972 l 526 972 "},"Ű":{"ha":597,"x_min":0,"x_max":0,"o":"m 136 1028 l 217 1181 l 354 1181 l 233 1028 m 331 1028 l 411 1181 l 549 1181 l 428 1028 m 526 218 b 297 -14 526 65 439 -14 b 71 218 158 -14 71 65 l 71 972 l 213 972 l 213 222 b 296 125 213 151 244 125 b 379 222 347 125 379 151 l 379 972 l 526 972 "},"Ū":{"ha":597,"x_min":0,"x_max":0,"o":"m 165 1060 l 165 1149 l 432 1149 l 432 1060 m 526 218 b 297 -14 526 65 439 -14 b 71 218 158 -14 71 65 l 71 972 l 213 972 l 213 222 b 296 125 213 151 244 125 b 379 222 347 125 379 151 l 379 972 l 526 972 "},"Ų":{"ha":597,"x_min":0,"x_max":0,"o":"m 526 218 b 403 4 526 108 481 36 b 353 -74 364 -25 353 -53 b 397 -112 353 -100 371 -112 b 447 -97 415 -112 433 -107 l 454 -182 b 360 -204 422 -199 394 -204 b 239 -119 282 -204 239 -175 b 306 -17 239 -82 260 -47 l 306 -14 l 297 -14 b 71 218 158 -14 71 65 l 71 972 l 213 972 l 213 222 b 296 125 213 151 244 125 b 379 222 347 125 379 151 l 379 972 l 526 972 "},"Ů":{"ha":597,"x_min":0,"x_max":0,"o":"m 299 1226 b 404 1119 360 1226 404 1182 b 299 1014 404 1058 360 1014 b 193 1119 238 1014 193 1058 b 299 1226 193 1182 238 1226 m 299 1163 b 260 1119 275 1163 260 1146 b 299 1078 260 1094 275 1078 b 338 1119 322 1078 338 1094 b 299 1163 338 1146 322 1163 m 526 218 b 297 -14 526 65 439 -14 b 71 218 158 -14 71 65 l 71 972 l 213 972 l 213 222 b 296 125 213 151 244 125 b 379 222 347 125 379 151 l 379 972 l 526 972 "},"Ũ":{"ha":597,"x_min":0,"x_max":0,"o":"m 239 1172 b 304 1150 260 1172 275 1167 b 356 1131 332 1135 343 1131 b 411 1169 376 1131 392 1142 l 467 1118 b 358 1036 432 1058 401 1036 b 293 1058 338 1036 322 1042 b 242 1078 265 1074 254 1078 b 186 1039 221 1078 206 1067 l 131 1090 b 239 1172 165 1150 196 1172 m 526 218 b 297 -14 526 65 439 -14 b 71 218 158 -14 71 65 l 71 972 l 213 972 l 213 222 b 296 125 213 151 244 125 b 379 222 347 125 379 151 l 379 972 l 526 972 "},"V":{"ha":571,"x_min":0,"x_max":0,"o":"m 190 0 l 26 972 l 176 972 l 286 231 l 289 231 l 397 972 l 544 972 l 381 0 "},"W":{"ha":824,"x_min":0,"x_max":0,"o":"m 497 0 l 414 579 l 411 579 l 326 0 l 176 0 l 26 972 l 178 972 l 263 328 l 265 328 l 349 972 l 479 972 l 563 328 l 565 328 l 650 972 l 797 972 l 647 0 "},"Ẃ":{"ha":824,"x_min":0,"x_max":0,"o":"m 342 1028 l 422 1181 l 571 1181 l 450 1028 m 497 0 l 414 579 l 411 579 l 326 0 l 176 0 l 26 972 l 178 972 l 263 328 l 265 328 l 349 972 l 479 972 l 563 328 l 565 328 l 650 972 l 797 972 l 647 0 "},"Ŵ":{"ha":824,"x_min":0,"x_max":0,"o":"m 474 1028 l 413 1106 l 351 1028 l 243 1028 l 338 1181 l 488 1181 l 582 1028 m 497 0 l 414 579 l 411 579 l 326 0 l 176 0 l 26 972 l 178 972 l 263 328 l 265 328 l 349 972 l 479 972 l 563 328 l 565 328 l 650 972 l 797 972 l 647 0 "},"Ẅ":{"ha":824,"x_min":0,"x_max":0,"o":"m 246 1038 l 246 1171 l 376 1171 l 376 1038 m 449 1038 l 449 1171 l 579 1171 l 579 1038 m 497 0 l 414 579 l 411 579 l 326 0 l 176 0 l 26 972 l 178 972 l 263 328 l 265 328 l 349 972 l 479 972 l 563 328 l 565 328 l 650 972 l 797 972 l 647 0 "},"Ẁ":{"ha":824,"x_min":0,"x_max":0,"o":"m 375 1028 l 254 1181 l 403 1181 l 483 1028 m 497 0 l 414 579 l 411 579 l 326 0 l 176 0 l 26 972 l 178 972 l 263 328 l 265 328 l 349 972 l 479 972 l 563 328 l 565 328 l 650 972 l 797 972 l 647 0 "},"X":{"ha":571,"x_min":0,"x_max":0,"o":"m 558 0 l 403 0 l 282 342 l 279 342 l 165 0 l 13 0 l 199 504 l 24 972 l 179 972 l 288 663 l 290 663 l 394 972 l 547 972 l 372 499 "},"Y":{"ha":522,"x_min":0,"x_max":0,"o":"m 336 0 l 189 0 l 189 440 l -15 972 l 140 972 l 264 628 l 267 628 l 385 972 l 538 972 l 336 439 "},"Ý":{"ha":522,"x_min":0,"x_max":0,"o":"m 190 1028 l 271 1181 l 419 1181 l 299 1028 m 336 0 l 189 0 l 189 440 l -15 972 l 140 972 l 264 628 l 267 628 l 385 972 l 538 972 l 336 439 "},"Ŷ":{"ha":522,"x_min":0,"x_max":0,"o":"m 322 1028 l 261 1106 l 200 1028 l 92 1028 l 186 1181 l 336 1181 l 431 1028 m 336 0 l 189 0 l 189 440 l -15 972 l 140 972 l 264 628 l 267 628 l 385 972 l 538 972 l 336 439 "},"Ÿ":{"ha":522,"x_min":0,"x_max":0,"o":"m 94 1038 l 94 1171 l 225 1171 l 225 1038 m 297 1038 l 297 1171 l 428 1171 l 428 1038 m 336 0 l 189 0 l 189 440 l -15 972 l 140 972 l 264 628 l 267 628 l 385 972 l 538 972 l 336 439 "},"Ỳ":{"ha":522,"x_min":0,"x_max":0,"o":"m 224 1028 l 103 1181 l 251 1181 l 332 1028 m 336 0 l 189 0 l 189 440 l -15 972 l 140 972 l 264 628 l 267 628 l 385 972 l 538 972 l 336 439 "},"Z":{"ha":486,"x_min":0,"x_max":0,"o":"m 186 136 l 457 136 l 457 0 l 26 0 l 26 122 l 297 836 l 40 836 l 40 972 l 457 972 l 457 850 "},"Ź":{"ha":486,"x_min":0,"x_max":0,"o":"m 175 1028 l 256 1181 l 404 1181 l 283 1028 m 186 136 l 457 136 l 457 0 l 26 0 l 26 122 l 297 836 l 40 836 l 40 972 l 457 972 l 457 850 "},"Ž":{"ha":486,"x_min":0,"x_max":0,"o":"m 171 1028 l 76 1181 l 185 1181 l 246 1103 l 307 1181 l 415 1181 l 321 1028 m 186 136 l 457 136 l 457 0 l 26 0 l 26 122 l 297 836 l 40 836 l 40 972 l 457 972 l 457 850 "},"Ż":{"ha":486,"x_min":0,"x_max":0,"o":"m 175 1032 l 175 1176 l 317 1176 l 317 1032 m 186 136 l 457 136 l 457 0 l 26 0 l 26 122 l 297 836 l 40 836 l 40 972 l 457 972 l 457 850 "},"a":{"ha":576,"x_min":0,"x_max":0,"o":"m 400 0 l 368 221 l 206 221 l 174 0 l 26 0 l 194 972 l 382 972 l 550 0 m 225 354 l 349 354 l 289 764 l 285 764 "},"á":{"ha":576,"x_min":0,"x_max":0,"o":"m 218 1028 l 299 1181 l 447 1181 l 326 1028 m 400 0 l 368 221 l 206 221 l 174 0 l 26 0 l 194 972 l 382 972 l 550 0 m 225 354 l 349 354 l 289 764 l 285 764 "},"ă":{"ha":576,"x_min":0,"x_max":0,"o":"m 449 1181 b 289 1021 449 1079 390 1021 b 129 1181 188 1021 129 1079 l 224 1181 b 289 1124 224 1146 249 1124 b 354 1181 329 1124 354 1146 m 400 0 l 368 221 l 206 221 l 174 0 l 26 0 l 194 972 l 382 972 l 550 0 m 225 354 l 349 354 l 289 764 l 285 764 "},"â":{"ha":576,"x_min":0,"x_max":0,"o":"m 350 1028 l 289 1106 l 228 1028 l 119 1028 l 214 1181 l 364 1181 l 458 1028 m 400 0 l 368 221 l 206 221 l 174 0 l 26 0 l 194 972 l 382 972 l 550 0 m 225 354 l 349 354 l 289 764 l 285 764 "},"ä":{"ha":576,"x_min":0,"x_max":0,"o":"m 122 1038 l 122 1171 l 253 1171 l 253 1038 m 325 1038 l 325 1171 l 456 1171 l 456 1038 m 400 0 l 368 221 l 206 221 l 174 0 l 26 0 l 194 972 l 382 972 l 550 0 m 225 354 l 349 354 l 289 764 l 285 764 "},"à":{"ha":576,"x_min":0,"x_max":0,"o":"m 251 1028 l 131 1181 l 279 1181 l 360 1028 m 400 0 l 368 221 l 206 221 l 174 0 l 26 0 l 194 972 l 382 972 l 550 0 m 225 354 l 349 354 l 289 764 l 285 764 "},"ā":{"ha":576,"x_min":0,"x_max":0,"o":"m 156 1060 l 156 1149 l 422 1149 l 422 1060 m 400 0 l 368 221 l 206 221 l 174 0 l 26 0 l 194 972 l 382 972 l 550 0 m 225 354 l 349 354 l 289 764 l 285 764 "},"ą":{"ha":576,"x_min":0,"x_max":0,"o":"m 493 0 b 449 -74 458 -28 449 -54 b 493 -112 449 -100 467 -112 b 543 -97 511 -112 529 -107 l 550 -182 b 456 -204 518 -199 490 -204 b 335 -119 378 -204 335 -175 b 424 -3 335 -75 361 -36 l 424 0 l 400 0 l 368 221 l 206 221 l 174 0 l 26 0 l 194 972 l 382 972 l 550 0 m 225 354 l 349 354 l 289 764 l 285 764 "},"å":{"ha":576,"x_min":0,"x_max":0,"o":"m 289 1226 b 394 1119 350 1226 394 1182 b 289 1014 394 1058 350 1014 b 183 1119 228 1014 183 1058 b 289 1226 183 1182 228 1226 m 289 1163 b 250 1119 265 1163 250 1146 b 289 1078 250 1094 265 1078 b 328 1119 313 1078 328 1094 b 289 1163 328 1146 313 1163 m 400 0 l 368 221 l 206 221 l 174 0 l 26 0 l 194 972 l 382 972 l 550 0 m 225 354 l 349 354 l 289 764 l 285 764 "},"ã":{"ha":576,"x_min":0,"x_max":0,"o":"m 229 1172 b 294 1150 250 1172 265 1167 b 346 1131 322 1135 333 1131 b 401 1169 367 1131 382 1142 l 457 1118 b 349 1036 422 1058 392 1036 b 283 1058 328 1036 313 1042 b 232 1078 256 1074 244 1078 b 176 1039 211 1078 196 1067 l 121 1090 b 229 1172 156 1150 186 1172 m 400 0 l 368 221 l 206 221 l 174 0 l 26 0 l 194 972 l 382 972 l 550 0 m 225 354 l 349 354 l 289 764 l 285 764 "},"æ":{"ha":850,"x_min":0,"x_max":0,"o":"m 538 836 l 538 561 l 753 561 l 753 425 l 538 425 l 538 136 l 804 136 l 804 0 l 390 0 l 390 221 l 226 221 l 161 0 l 15 0 l 319 972 l 804 972 l 804 836 m 267 354 l 390 354 l 390 768 l 388 768 "},"ǽ":{"ha":850,"x_min":0,"x_max":0,"o":"m 393 1028 l 474 1181 l 622 1181 l 501 1028 m 538 836 l 538 561 l 753 561 l 753 425 l 538 425 l 538 136 l 804 136 l 804 0 l 390 0 l 390 221 l 226 221 l 161 0 l 15 0 l 319 972 l 804 972 l 804 836 m 267 354 l 390 354 l 390 768 l 388 768 "},"b":{"ha":579,"x_min":0,"x_max":0,"o":"m 285 972 b 519 726 438 972 519 886 l 519 708 b 410 510 519 600 488 536 l 410 507 b 540 279 501 479 540 407 l 540 246 b 296 0 540 86 454 0 l 79 0 l 79 972 m 226 571 l 272 571 b 372 689 343 571 372 607 l 372 721 b 279 836 372 800 343 836 l 226 836 m 226 136 l 290 136 b 393 256 361 136 393 174 l 393 310 b 283 435 393 396 361 435 l 226 435 "},"c":{"ha":565,"x_min":0,"x_max":0,"o":"m 290 986 b 519 753 435 986 519 900 l 519 665 l 378 658 l 378 738 b 294 850 378 815 349 850 b 211 751 240 850 211 815 l 211 221 b 294 122 211 157 240 122 b 378 235 349 122 378 157 l 378 343 l 519 336 l 519 219 b 290 -14 519 72 435 -14 b 64 219 147 -14 64 72 l 64 753 b 290 986 64 900 147 986 "},"ć":{"ha":565,"x_min":0,"x_max":0,"o":"m 218 1028 l 299 1181 l 447 1181 l 326 1028 m 290 986 b 519 753 435 986 519 900 l 519 665 l 378 658 l 378 738 b 294 850 378 815 349 850 b 211 751 240 850 211 815 l 211 221 b 294 122 211 157 240 122 b 378 235 349 122 378 157 l 378 343 l 519 336 l 519 219 b 290 -14 519 72 435 -14 b 64 219 147 -14 64 72 l 64 753 b 290 986 64 900 147 986 "},"č":{"ha":565,"x_min":0,"x_max":0,"o":"m 214 1028 l 119 1181 l 228 1181 l 289 1103 l 350 1181 l 458 1181 l 364 1028 m 290 986 b 519 753 435 986 519 900 l 519 665 l 378 658 l 378 738 b 294 850 378 815 349 850 b 211 751 240 850 211 815 l 211 221 b 294 122 211 157 240 122 b 378 235 349 122 378 157 l 378 343 l 519 336 l 519 219 b 290 -14 519 72 435 -14 b 64 219 147 -14 64 72 l 64 753 b 290 986 64 900 147 986 "},"ç":{"ha":565,"x_min":0,"x_max":0,"o":"m 290 986 b 519 753 435 986 519 900 l 519 665 l 378 658 l 378 738 b 294 850 378 815 349 850 b 211 751 240 850 211 815 l 211 221 b 294 122 211 157 240 122 b 378 235 349 122 378 157 l 378 343 l 519 336 l 519 219 b 325 -12 519 85 449 1 l 325 -49 b 428 -122 394 -49 428 -72 b 288 -204 428 -178 383 -204 b 154 -118 200 -204 154 -175 l 154 -110 l 257 -104 l 257 -115 b 289 -149 257 -137 268 -149 b 321 -115 310 -149 321 -137 b 272 -74 321 -85 308 -74 l 258 -74 l 258 -12 b 64 219 135 0 64 83 l 64 753 b 290 986 64 900 147 986 "},"ĉ":{"ha":565,"x_min":0,"x_max":0,"o":"m 350 1028 l 289 1106 l 228 1028 l 119 1028 l 214 1181 l 364 1181 l 458 1028 m 290 986 b 519 753 435 986 519 900 l 519 665 l 378 658 l 378 738 b 294 850 378 815 349 850 b 211 751 240 850 211 815 l 211 221 b 294 122 211 157 240 122 b 378 235 349 122 378 157 l 378 343 l 519 336 l 519 219 b 290 -14 519 72 435 -14 b 64 219 147 -14 64 72 l 64 753 b 290 986 64 900 147 986 "},"ċ":{"ha":565,"x_min":0,"x_max":0,"o":"m 218 1032 l 218 1176 l 360 1176 l 360 1032 m 290 986 b 519 753 435 986 519 900 l 519 665 l 378 658 l 378 738 b 294 850 378 815 349 850 b 211 751 240 850 211 815 l 211 221 b 294 122 211 157 240 122 b 378 235 349 122 378 157 l 378 343 l 519 336 l 519 219 b 290 -14 519 72 435 -14 b 64 219 147 -14 64 72 l 64 753 b 290 986 64 900 147 986 "},"d":{"ha":599,"x_min":0,"x_max":0,"o":"m 290 972 b 535 726 449 972 535 886 l 535 246 b 290 0 535 86 449 0 l 79 0 l 79 972 m 226 136 l 285 136 b 388 256 356 136 388 174 l 388 717 b 285 836 388 799 356 836 l 226 836 "},"ð":{"ha":608,"x_min":0,"x_max":0,"o":"m 300 972 b 544 726 458 972 544 886 l 544 246 b 300 0 544 86 458 0 l 89 0 l 89 417 l 28 417 l 28 553 l 89 553 l 89 972 m 236 553 l 324 553 l 324 417 l 236 417 l 236 136 l 294 136 b 397 256 365 136 397 174 l 397 717 b 294 836 397 799 365 836 l 236 836 "},"ď":{"ha":599,"x_min":0,"x_max":0,"o":"m 199 1028 l 104 1181 l 213 1181 l 274 1103 l 335 1181 l 443 1181 l 349 1028 m 290 972 b 535 726 449 972 535 886 l 535 246 b 290 0 535 86 449 0 l 79 0 l 79 972 m 226 136 l 285 136 b 388 256 356 136 388 174 l 388 717 b 285 836 388 799 356 836 l 226 836 "},"đ":{"ha":608,"x_min":0,"x_max":0,"o":"m 300 972 b 544 726 458 972 544 886 l 544 246 b 300 0 544 86 458 0 l 89 0 l 89 417 l 28 417 l 28 553 l 89 553 l 89 972 m 236 553 l 324 553 l 324 417 l 236 417 l 236 136 l 294 136 b 397 256 365 136 397 174 l 397 717 b 294 836 397 799 365 836 l 236 836 "},"e":{"ha":539,"x_min":0,"x_max":0,"o":"m 226 836 l 226 561 l 442 561 l 442 425 l 226 425 l 226 136 l 493 136 l 493 0 l 79 0 l 79 972 l 493 972 l 493 836 "},"é":{"ha":539,"x_min":0,"x_max":0,"o":"m 214 1028 l 294 1181 l 443 1181 l 322 1028 m 226 836 l 226 561 l 442 561 l 442 425 l 226 425 l 226 136 l 493 136 l 493 0 l 79 0 l 79 972 l 493 972 l 493 836 "},"ĕ":{"ha":539,"x_min":0,"x_max":0,"o":"m 444 1181 b 285 1021 444 1079 386 1021 b 125 1181 183 1021 125 1079 l 219 1181 b 285 1124 219 1146 244 1124 b 350 1181 325 1124 350 1146 m 226 836 l 226 561 l 442 561 l 442 425 l 226 425 l 226 136 l 493 136 l 493 0 l 79 0 l 79 972 l 493 972 l 493 836 "},"ě":{"ha":539,"x_min":0,"x_max":0,"o":"m 210 1028 l 115 1181 l 224 1181 l 285 1103 l 346 1181 l 454 1181 l 360 1028 m 226 836 l 226 561 l 442 561 l 442 425 l 226 425 l 226 136 l 493 136 l 493 0 l 79 0 l 79 972 l 493 972 l 493 836 "},"ê":{"ha":539,"x_min":0,"x_max":0,"o":"m 346 1028 l 285 1106 l 224 1028 l 115 1028 l 210 1181 l 360 1181 l 454 1028 m 226 836 l 226 561 l 442 561 l 442 425 l 226 425 l 226 136 l 493 136 l 493 0 l 79 0 l 79 972 l 493 972 l 493 836 "},"ë":{"ha":539,"x_min":0,"x_max":0,"o":"m 118 1038 l 118 1171 l 249 1171 l 249 1038 m 321 1038 l 321 1171 l 451 1171 l 451 1038 m 226 836 l 226 561 l 442 561 l 442 425 l 226 425 l 226 136 l 493 136 l 493 0 l 79 0 l 79 972 l 493 972 l 493 836 "},"ė":{"ha":539,"x_min":0,"x_max":0,"o":"m 214 1032 l 214 1176 l 356 1176 l 356 1032 m 226 836 l 226 561 l 442 561 l 442 425 l 226 425 l 226 136 l 493 136 l 493 0 l 79 0 l 79 972 l 493 972 l 493 836 "},"è":{"ha":539,"x_min":0,"x_max":0,"o":"m 247 1028 l 126 1181 l 275 1181 l 356 1028 m 226 836 l 226 561 l 442 561 l 442 425 l 226 425 l 226 136 l 493 136 l 493 0 l 79 0 l 79 972 l 493 972 l 493 836 "},"ē":{"ha":539,"x_min":0,"x_max":0,"o":"m 151 1060 l 151 1149 l 418 1149 l 418 1060 m 226 836 l 226 561 l 442 561 l 442 425 l 226 425 l 226 136 l 493 136 l 493 0 l 79 0 l 79 972 l 493 972 l 493 836 "},"ę":{"ha":539,"x_min":0,"x_max":0,"o":"m 226 836 l 226 561 l 442 561 l 442 425 l 226 425 l 226 136 l 493 136 l 493 0 l 436 0 b 392 -74 401 -28 392 -54 b 436 -112 392 -100 410 -112 b 486 -97 454 -112 472 -107 l 493 -182 b 399 -204 461 -199 433 -204 b 278 -119 321 -204 278 -175 b 367 -3 278 -76 306 -36 l 367 0 l 79 0 l 79 972 l 493 972 l 493 836 "},"f":{"ha":504,"x_min":0,"x_max":0,"o":"m 226 836 l 226 561 l 435 561 l 435 425 l 226 425 l 226 0 l 79 0 l 79 972 l 486 972 l 486 836 "},"g":{"ha":585,"x_min":0,"x_max":0,"o":"m 293 986 b 525 753 440 986 525 900 l 525 686 l 383 679 l 383 738 b 297 850 383 815 354 850 b 211 751 240 850 211 815 l 211 221 b 296 122 211 157 239 122 b 381 235 353 122 381 157 l 381 401 l 297 401 l 297 538 l 525 538 l 525 219 b 293 -14 525 72 440 -14 b 64 219 147 -14 64 72 l 64 753 b 293 986 64 900 147 986 "},"ğ":{"ha":585,"x_min":0,"x_max":0,"o":"m 453 1181 b 293 1021 453 1079 394 1021 b 133 1181 192 1021 133 1079 l 228 1181 b 293 1124 228 1146 253 1124 b 358 1181 333 1124 358 1146 m 293 986 b 525 753 440 986 525 900 l 525 686 l 383 679 l 383 738 b 297 850 383 815 354 850 b 211 751 240 850 211 815 l 211 221 b 296 122 211 157 239 122 b 381 235 353 122 381 157 l 381 401 l 297 401 l 297 538 l 525 538 l 525 219 b 293 -14 525 72 440 -14 b 64 219 147 -14 64 72 l 64 753 b 293 986 64 900 147 986 "},"ĝ":{"ha":585,"x_min":0,"x_max":0,"o":"m 354 1028 l 293 1106 l 232 1028 l 124 1028 l 218 1181 l 368 1181 l 463 1028 m 293 986 b 525 753 440 986 525 900 l 525 686 l 383 679 l 383 738 b 297 850 383 815 354 850 b 211 751 240 850 211 815 l 211 221 b 296 122 211 157 239 122 b 381 235 353 122 381 157 l 381 401 l 297 401 l 297 538 l 525 538 l 525 219 b 293 -14 525 72 440 -14 b 64 219 147 -14 64 72 l 64 753 b 293 986 64 900 147 986 "},"ģ":{"ha":585,"x_min":0,"x_max":0,"o":"m 293 986 b 525 753 440 986 525 900 l 525 686 l 383 679 l 383 738 b 297 850 383 815 354 850 b 211 751 240 850 211 815 l 211 221 b 296 122 211 157 239 122 b 381 235 353 122 381 157 l 381 401 l 297 401 l 297 538 l 525 538 l 525 219 b 293 -14 525 72 440 -14 b 64 219 147 -14 64 72 l 64 753 b 293 986 64 900 147 986 m 292 -283 l 222 -283 l 268 -183 l 222 -183 l 222 -56 l 364 -56 l 364 -171 "},"ġ":{"ha":585,"x_min":0,"x_max":0,"o":"m 222 1032 l 222 1176 l 364 1176 l 364 1032 m 293 986 b 525 753 440 986 525 900 l 525 686 l 383 679 l 383 738 b 297 850 383 815 354 850 b 211 751 240 850 211 815 l 211 221 b 296 122 211 157 239 122 b 381 235 353 122 381 157 l 381 401 l 297 401 l 297 538 l 525 538 l 525 219 b 293 -14 525 72 440 -14 b 64 219 147 -14 64 72 l 64 753 b 293 986 64 900 147 986 "},"h":{"ha":628,"x_min":0,"x_max":0,"o":"m 401 0 l 401 424 l 226 424 l 226 0 l 79 0 l 79 972 l 226 972 l 226 563 l 401 563 l 401 972 l 549 972 l 549 0 "},"ħ":{"ha":642,"x_min":0,"x_max":0,"o":"m 617 835 l 617 707 l 556 707 l 556 0 l 408 0 l 408 424 l 233 424 l 233 0 l 86 0 l 86 707 l 25 707 l 25 835 l 86 835 l 86 972 l 233 972 l 233 835 l 408 835 l 408 972 l 556 972 l 556 835 m 233 563 l 408 563 l 408 707 l 233 707 "},"ĥ":{"ha":628,"x_min":0,"x_max":0,"o":"m 375 1028 l 314 1106 l 253 1028 l 144 1028 l 239 1181 l 389 1181 l 483 1028 m 401 0 l 401 424 l 226 424 l 226 0 l 79 0 l 79 972 l 226 972 l 226 563 l 401 563 l 401 972 l 549 972 l 549 0 "},"i":{"ha":306,"x_min":0,"x_max":0,"o":"m 79 0 l 79 972 l 226 972 l 226 0 "},"ı":{"ha":306,"x_min":0,"x_max":0,"o":"m 79 0 l 79 972 l 226 972 l 226 0 "},"í":{"ha":306,"x_min":0,"x_max":0,"o":"m 82 1028 l 163 1181 l 311 1181 l 190 1028 m 79 0 l 79 972 l 226 972 l 226 0 "},"ĭ":{"ha":306,"x_min":0,"x_max":0,"o":"m 313 1181 b 153 1021 313 1079 254 1021 b -7 1181 51 1021 -7 1079 l 88 1181 b 153 1124 88 1146 113 1124 b 218 1181 193 1124 218 1146 m 79 0 l 79 972 l 226 972 l 226 0 "},"î":{"ha":306,"x_min":0,"x_max":0,"o":"m 214 1028 l 153 1106 l 92 1028 l -17 1028 l 78 1181 l 228 1181 l 322 1028 m 79 0 l 79 972 l 226 972 l 226 0 "},"ï":{"ha":306,"x_min":0,"x_max":0,"o":"m -14 1038 l -14 1171 l 117 1171 l 117 1038 m 189 1038 l 189 1171 l 319 1171 l 319 1038 m 79 0 l 79 972 l 226 972 l 226 0 "},"ì":{"ha":306,"x_min":0,"x_max":0,"o":"m 115 1028 l -6 1181 l 143 1181 l 224 1028 m 79 0 l 79 972 l 226 972 l 226 0 "},"ĳ":{"ha":724,"x_min":0,"x_max":0,"o":"m 79 0 l 79 972 l 226 972 l 226 0 m 651 226 b 425 -14 651 71 578 -14 b 326 -1 390 -14 357 -10 l 335 133 b 407 122 353 128 378 122 b 504 231 475 122 504 156 l 504 972 l 651 972 "},"ī":{"ha":306,"x_min":0,"x_max":0,"o":"m 19 1060 l 19 1149 l 286 1149 l 286 1060 m 79 0 l 79 972 l 226 972 l 226 0 "},"į":{"ha":306,"x_min":0,"x_max":0,"o":"m 200 0 b 156 -74 165 -28 156 -54 b 200 -112 156 -100 174 -112 b 250 -97 218 -112 236 -107 l 257 -182 b 163 -204 225 -199 197 -204 b 42 -119 85 -204 42 -175 b 131 -3 42 -76 69 -36 l 131 0 l 79 0 l 79 972 l 226 972 l 226 0 "},"ĩ":{"ha":306,"x_min":0,"x_max":0,"o":"m 93 1172 b 158 1150 114 1172 129 1167 b 210 1131 186 1135 197 1131 b 265 1169 231 1131 246 1142 l 321 1118 b 213 1036 286 1058 256 1036 b 147 1058 192 1036 176 1042 b 96 1078 119 1074 108 1078 b 40 1039 75 1078 60 1067 l -15 1090 b 93 1172 19 1150 50 1172 m 79 0 l 79 972 l 226 972 l 226 0 "},"j":{"ha":418,"x_min":0,"x_max":0,"o":"m 346 226 b 119 -14 346 71 272 -14 b 21 -1 85 -14 51 -10 l 29 133 b 101 122 47 128 72 122 b 199 231 169 122 199 156 l 199 972 l 346 972 "},"ȷ":{"ha":418,"x_min":0,"x_max":0,"o":"m 346 226 b 119 -14 346 71 272 -14 b 21 -1 85 -14 51 -10 l 29 133 b 101 122 47 128 72 122 b 199 231 169 122 199 156 l 199 972 l 346 972 "},"ĵ":{"ha":418,"x_min":0,"x_max":0,"o":"m 333 1028 l 272 1106 l 211 1028 l 103 1028 l 197 1181 l 347 1181 l 442 1028 m 346 226 b 119 -14 346 71 272 -14 b 21 -1 85 -14 51 -10 l 29 133 b 101 122 47 128 72 122 b 199 231 169 122 199 156 l 199 972 l 346 972 "},"k":{"ha":586,"x_min":0,"x_max":0,"o":"m 578 0 l 421 0 l 276 425 l 213 300 l 213 0 l 65 0 l 65 972 l 213 972 l 213 567 l 215 567 l 419 972 l 574 972 l 374 586 "},"ķ":{"ha":586,"x_min":0,"x_max":0,"o":"m 578 0 l 421 0 l 276 425 l 213 300 l 213 0 l 65 0 l 65 972 l 213 972 l 213 567 l 215 567 l 419 972 l 574 972 l 374 586 m 311 -283 l 242 -283 l 288 -183 l 242 -183 l 242 -56 l 383 -56 l 383 -171 "},"ĸ":{"ha":586,"x_min":0,"x_max":0,"o":"m 578 0 l 421 0 l 276 425 l 213 300 l 213 0 l 65 0 l 65 972 l 213 972 l 213 567 l 215 567 l 419 972 l 574 972 l 374 586 "},"l":{"ha":488,"x_min":0,"x_max":0,"o":"m 472 139 l 472 0 l 79 0 l 79 972 l 226 972 l 226 139 "},"ĺ":{"ha":488,"x_min":0,"x_max":0,"o":"m 82 1028 l 163 1181 l 311 1181 l 190 1028 m 472 139 l 472 0 l 79 0 l 79 972 l 226 972 l 226 139 "},"ľ":{"ha":488,"x_min":0,"x_max":0,"o":"m 472 139 l 472 0 l 79 0 l 79 972 l 226 972 l 226 139 m 367 744 l 297 744 l 343 844 l 297 844 l 297 972 l 439 972 l 439 857 "},"ļ":{"ha":488,"x_min":0,"x_max":0,"o":"m 472 139 l 472 0 l 79 0 l 79 972 l 226 972 l 226 139 m 276 -283 l 207 -283 l 253 -183 l 207 -183 l 207 -56 l 349 -56 l 349 -171 "},"ŀ":{"ha":488,"x_min":0,"x_max":0,"o":"m 472 139 l 472 0 l 79 0 l 79 972 l 226 972 l 226 139 m 319 442 l 319 597 l 475 597 l 475 442 "},"ł":{"ha":496,"x_min":0,"x_max":0,"o":"m 415 722 l 415 583 l 236 454 l 236 139 l 482 139 l 482 0 l 89 0 l 89 349 l 29 306 l 29 444 l 89 488 l 89 972 l 236 972 l 236 593 "},"m":{"ha":782,"x_min":0,"x_max":0,"o":"m 556 0 l 556 675 l 553 675 l 431 139 l 343 139 l 221 675 l 218 675 l 218 0 l 79 0 l 79 972 l 272 972 l 388 450 l 390 450 l 504 972 l 703 972 l 703 0 "},"n":{"ha":638,"x_min":0,"x_max":0,"o":"m 414 0 l 221 644 l 218 644 l 218 0 l 79 0 l 79 972 l 243 972 l 417 393 l 419 393 l 419 972 l 558 972 l 558 0 "},"ń":{"ha":638,"x_min":0,"x_max":0,"o":"m 249 1028 l 329 1181 l 478 1181 l 357 1028 m 414 0 l 221 644 l 218 644 l 218 0 l 79 0 l 79 972 l 243 972 l 417 393 l 419 393 l 419 972 l 558 972 l 558 0 "},"ň":{"ha":638,"x_min":0,"x_max":0,"o":"m 244 1028 l 150 1181 l 258 1181 l 319 1103 l 381 1181 l 489 1181 l 394 1028 m 414 0 l 221 644 l 218 644 l 218 0 l 79 0 l 79 972 l 243 972 l 417 393 l 419 393 l 419 972 l 558 972 l 558 0 "},"ņ":{"ha":638,"x_min":0,"x_max":0,"o":"m 414 0 l 221 644 l 218 644 l 218 0 l 79 0 l 79 972 l 243 972 l 417 393 l 419 393 l 419 972 l 558 972 l 558 0 m 318 -283 l 249 -283 l 294 -183 l 249 -183 l 249 -56 l 390 -56 l 390 -171 "},"ŋ":{"ha":638,"x_min":0,"x_max":0,"o":"m 558 0 b 332 -240 558 -156 485 -240 b 233 -228 297 -240 264 -236 l 242 -93 b 314 -104 260 -99 285 -104 b 411 4 382 -104 411 -71 l 411 8 l 221 644 l 218 644 l 218 0 l 79 0 l 79 972 l 243 972 l 417 393 l 419 393 l 419 972 l 558 972 "},"ñ":{"ha":638,"x_min":0,"x_max":0,"o":"m 260 1172 b 325 1150 281 1172 296 1167 b 376 1131 353 1135 364 1131 b 432 1169 397 1131 413 1142 l 488 1118 b 379 1036 453 1058 422 1036 b 314 1058 358 1036 343 1042 b 263 1078 286 1074 275 1078 b 207 1039 242 1078 226 1067 l 151 1090 b 260 1172 186 1150 217 1172 m 414 0 l 221 644 l 218 644 l 218 0 l 79 0 l 79 972 l 243 972 l 417 393 l 419 393 l 419 972 l 558 972 l 558 0 "},"o":{"ha":603,"x_min":0,"x_max":0,"o":"m 301 986 b 539 740 449 986 539 893 l 539 232 b 301 -14 539 79 449 -14 b 64 232 154 -14 64 79 l 64 740 b 301 986 64 893 154 986 m 301 850 b 211 739 243 850 211 811 l 211 233 b 301 122 211 161 243 122 b 392 233 360 122 392 161 l 392 739 b 301 850 392 811 360 850 "},"ó":{"ha":603,"x_min":0,"x_max":0,"o":"m 231 1028 l 311 1181 l 460 1181 l 339 1028 m 301 986 b 539 740 449 986 539 893 l 539 232 b 301 -14 539 79 449 -14 b 64 232 154 -14 64 79 l 64 740 b 301 986 64 893 154 986 m 301 850 b 211 739 243 850 211 811 l 211 233 b 301 122 211 161 243 122 b 392 233 360 122 392 161 l 392 739 b 301 850 392 811 360 850 "},"ŏ":{"ha":603,"x_min":0,"x_max":0,"o":"m 461 1181 b 301 1021 461 1079 403 1021 b 142 1181 200 1021 142 1079 l 236 1181 b 301 1124 236 1146 261 1124 b 367 1181 342 1124 367 1146 m 301 986 b 539 740 449 986 539 893 l 539 232 b 301 -14 539 79 449 -14 b 64 232 154 -14 64 79 l 64 740 b 301 986 64 893 154 986 m 301 850 b 211 739 243 850 211 811 l 211 233 b 301 122 211 161 243 122 b 392 233 360 122 392 161 l 392 739 b 301 850 392 811 360 850 "},"ô":{"ha":603,"x_min":0,"x_max":0,"o":"m 363 1028 l 301 1106 l 240 1028 l 132 1028 l 226 1181 l 376 1181 l 471 1028 m 301 986 b 539 740 449 986 539 893 l 539 232 b 301 -14 539 79 449 -14 b 64 232 154 -14 64 79 l 64 740 b 301 986 64 893 154 986 m 301 850 b 211 739 243 850 211 811 l 211 233 b 301 122 211 161 243 122 b 392 233 360 122 392 161 l 392 739 b 301 850 392 811 360 850 "},"ö":{"ha":603,"x_min":0,"x_max":0,"o":"m 135 1038 l 135 1171 l 265 1171 l 265 1038 m 338 1038 l 338 1171 l 468 1171 l 468 1038 m 301 986 b 539 740 449 986 539 893 l 539 232 b 301 -14 539 79 449 -14 b 64 232 154 -14 64 79 l 64 740 b 301 986 64 893 154 986 m 301 850 b 211 739 243 850 211 811 l 211 233 b 301 122 211 161 243 122 b 392 233 360 122 392 161 l 392 739 b 301 850 392 811 360 850 "},"ò":{"ha":603,"x_min":0,"x_max":0,"o":"m 264 1028 l 143 1181 l 292 1181 l 372 1028 m 301 986 b 539 740 449 986 539 893 l 539 232 b 301 -14 539 79 449 -14 b 64 232 154 -14 64 79 l 64 740 b 301 986 64 893 154 986 m 301 850 b 211 739 243 850 211 811 l 211 233 b 301 122 211 161 243 122 b 392 233 360 122 392 161 l 392 739 b 301 850 392 811 360 850 "},"ő":{"ha":603,"x_min":0,"x_max":0,"o":"m 139 1028 l 219 1181 l 357 1181 l 236 1028 m 333 1028 l 414 1181 l 551 1181 l 431 1028 m 301 986 b 539 740 449 986 539 893 l 539 232 b 301 -14 539 79 449 -14 b 64 232 154 -14 64 79 l 64 740 b 301 986 64 893 154 986 m 301 850 b 211 739 243 850 211 811 l 211 233 b 301 122 211 161 243 122 b 392 233 360 122 392 161 l 392 739 b 301 850 392 811 360 850 "},"ō":{"ha":603,"x_min":0,"x_max":0,"o":"m 168 1060 l 168 1149 l 435 1149 l 435 1060 m 301 986 b 539 740 449 986 539 893 l 539 232 b 301 -14 539 79 449 -14 b 64 232 154 -14 64 79 l 64 740 b 301 986 64 893 154 986 m 301 850 b 211 739 243 850 211 811 l 211 233 b 301 122 211 161 243 122 b 392 233 360 122 392 161 l 392 739 b 301 850 392 811 360 850 "},"ø":{"ha":603,"x_min":0,"x_max":0,"o":"m 513 868 b 539 740 529 832 539 789 l 539 232 b 301 -14 539 79 449 -14 b 164 22 247 -14 200 -1 l 149 -14 l 57 24 l 90 104 b 64 232 74 140 64 183 l 64 740 b 301 986 64 893 154 986 b 439 950 356 986 403 974 l 454 986 l 546 949 m 301 850 b 211 739 243 850 211 811 l 211 400 l 213 400 l 379 804 b 301 850 365 835 339 850 m 224 168 b 301 122 238 138 264 122 b 392 233 360 122 392 161 l 392 572 l 390 572 "},"ǿ":{"ha":603,"x_min":0,"x_max":0,"o":"m 231 1028 l 311 1181 l 460 1181 l 339 1028 m 513 868 b 539 740 529 832 539 789 l 539 232 b 301 -14 539 79 449 -14 b 164 22 247 -14 200 -1 l 149 -14 l 57 24 l 90 104 b 64 232 74 140 64 183 l 64 740 b 301 986 64 893 154 986 b 439 950 356 986 403 974 l 454 986 l 546 949 m 301 850 b 211 739 243 850 211 811 l 211 400 l 213 400 l 379 804 b 301 850 365 835 339 850 m 224 168 b 301 122 238 138 264 122 b 392 233 360 122 392 161 l 392 572 l 390 572 "},"õ":{"ha":603,"x_min":0,"x_max":0,"o":"m 242 1172 b 307 1150 263 1172 278 1167 b 358 1131 335 1135 346 1131 b 414 1169 379 1131 394 1142 l 469 1118 b 361 1036 435 1058 404 1036 b 296 1058 340 1036 325 1042 b 244 1078 268 1074 257 1078 b 189 1039 224 1078 208 1067 l 133 1090 b 242 1172 168 1150 199 1172 m 301 986 b 539 740 449 986 539 893 l 539 232 b 301 -14 539 79 449 -14 b 64 232 154 -14 64 79 l 64 740 b 301 986 64 893 154 986 m 301 850 b 211 739 243 850 211 811 l 211 233 b 301 122 211 161 243 122 b 392 233 360 122 392 161 l 392 739 b 301 850 392 811 360 850 "},"œ":{"ha":833,"x_min":0,"x_max":0,"o":"m 519 836 l 519 561 l 735 561 l 735 425 l 519 425 l 519 136 l 786 136 l 786 0 l 308 0 b 64 246 150 0 64 86 l 64 726 b 308 972 64 886 150 972 l 786 972 l 786 836 m 314 836 b 211 717 243 836 211 799 l 211 256 b 314 136 211 174 243 136 l 372 136 l 372 836 "},"p":{"ha":565,"x_min":0,"x_max":0,"o":"m 292 972 b 536 726 450 972 536 886 l 536 649 b 292 403 536 489 450 403 l 226 403 l 226 0 l 79 0 l 79 972 m 226 539 l 286 539 b 389 658 357 539 389 576 l 389 717 b 286 836 389 799 357 836 l 226 836 "},"þ":{"ha":565,"x_min":0,"x_max":0,"o":"m 292 833 b 536 588 450 833 536 747 l 536 510 b 292 264 536 350 450 264 l 226 264 l 226 0 l 79 0 l 79 972 l 226 972 l 226 833 m 226 400 l 286 400 b 389 519 357 400 389 438 l 389 578 b 286 697 389 660 357 697 l 226 697 "},"q":{"ha":603,"x_min":0,"x_max":0,"o":"m 303 986 b 540 740 450 986 540 893 l 540 232 b 500 81 540 172 526 121 b 575 57 517 63 543 57 l 561 -79 b 399 1 489 -79 433 -56 b 303 -14 371 -8 338 -14 b 65 232 156 -14 65 79 l 65 740 b 303 986 65 893 156 986 m 303 850 b 213 739 244 850 213 811 l 213 233 b 303 122 213 161 244 122 b 393 233 361 122 393 161 l 393 739 b 303 850 393 811 361 850 "},"r":{"ha":581,"x_min":0,"x_max":0,"o":"m 281 411 l 213 411 l 213 0 l 65 0 l 65 972 l 278 972 b 522 726 436 972 522 886 l 522 657 b 418 443 522 554 486 482 l 553 0 l 397 0 m 213 547 l 272 547 b 375 667 343 547 375 585 l 375 717 b 272 836 375 799 343 836 l 213 836 "},"ŕ":{"ha":581,"x_min":0,"x_max":0,"o":"m 190 1028 l 271 1181 l 419 1181 l 299 1028 m 281 411 l 213 411 l 213 0 l 65 0 l 65 972 l 278 972 b 522 726 436 972 522 886 l 522 657 b 418 443 522 554 486 482 l 553 0 l 397 0 m 213 547 l 272 547 b 375 667 343 547 375 585 l 375 717 b 272 836 375 799 343 836 l 213 836 "},"ř":{"ha":581,"x_min":0,"x_max":0,"o":"m 186 1028 l 92 1181 l 200 1181 l 261 1103 l 322 1181 l 431 1181 l 336 1028 m 281 411 l 213 411 l 213 0 l 65 0 l 65 972 l 278 972 b 522 726 436 972 522 886 l 522 657 b 418 443 522 554 486 482 l 553 0 l 397 0 m 213 547 l 272 547 b 375 667 343 547 375 585 l 375 717 b 272 836 375 799 343 836 l 213 836 "},"ŗ":{"ha":581,"x_min":0,"x_max":0,"o":"m 281 411 l 213 411 l 213 0 l 65 0 l 65 972 l 278 972 b 522 726 436 972 522 886 l 522 657 b 418 443 522 554 486 482 l 553 0 l 397 0 m 213 547 l 272 547 b 375 667 343 547 375 585 l 375 717 b 272 836 375 799 343 836 l 213 836 m 300 -283 l 231 -283 l 276 -183 l 231 -183 l 231 -56 l 372 -56 l 372 -171 "},"s":{"ha":497,"x_min":0,"x_max":0,"o":"m 251 986 b 471 768 392 986 471 907 l 471 743 l 329 729 l 329 765 b 254 850 329 821 303 850 b 179 765 206 850 179 821 l 179 753 b 303 564 179 696 204 647 b 488 253 438 450 488 369 l 488 204 b 260 -14 488 65 406 -14 b 32 204 114 -14 32 65 l 32 269 l 174 283 l 174 214 b 257 122 174 153 201 122 b 340 214 313 122 340 153 l 340 246 b 213 439 340 307 311 356 b 32 747 78 553 32 633 l 32 768 b 251 986 32 907 111 986 "},"ś":{"ha":497,"x_min":0,"x_max":0,"o":"m 183 1028 l 264 1181 l 413 1181 l 292 1028 m 251 986 b 471 768 392 986 471 907 l 471 743 l 329 729 l 329 765 b 254 850 329 821 303 850 b 179 765 206 850 179 821 l 179 753 b 303 564 179 696 204 647 b 488 253 438 450 488 369 l 488 204 b 260 -14 488 65 406 -14 b 32 204 114 -14 32 65 l 32 269 l 174 283 l 174 214 b 257 122 174 153 201 122 b 340 214 313 122 340 153 l 340 246 b 213 439 340 307 311 356 b 32 747 78 553 32 633 l 32 768 b 251 986 32 907 111 986 "},"š":{"ha":497,"x_min":0,"x_max":0,"o":"m 179 1028 l 85 1181 l 193 1181 l 254 1103 l 315 1181 l 424 1181 l 329 1028 m 251 986 b 471 768 392 986 471 907 l 471 743 l 329 729 l 329 765 b 254 850 329 821 303 850 b 179 765 206 850 179 821 l 179 753 b 303 564 179 696 204 647 b 488 253 438 450 488 369 l 488 204 b 260 -14 488 65 406 -14 b 32 204 114 -14 32 65 l 32 269 l 174 283 l 174 214 b 257 122 174 153 201 122 b 340 214 313 122 340 153 l 340 246 b 213 439 340 307 311 356 b 32 747 78 553 32 633 l 32 768 b 251 986 32 907 111 986 "},"ş":{"ha":496,"x_min":0,"x_max":0,"o":"m 251 986 b 471 769 388 986 471 913 l 471 740 l 329 726 l 329 757 b 253 850 329 824 304 850 b 179 768 210 850 179 824 l 179 747 b 306 564 179 693 208 651 b 483 254 438 444 483 367 l 483 208 b 289 -12 483 76 407 -1 l 289 -49 b 392 -122 358 -49 392 -72 b 251 -204 392 -178 347 -204 b 118 -118 164 -204 118 -175 l 118 -110 l 221 -104 l 221 -115 b 253 -149 221 -137 232 -149 b 285 -115 274 -149 285 -137 b 236 -74 285 -85 272 -74 l 222 -74 l 221 -12 b 31 203 106 0 31 74 l 31 272 l 172 286 l 172 215 b 257 122 172 150 204 122 b 336 218 301 122 336 149 l 336 249 b 210 439 336 310 307 351 b 32 742 78 558 32 636 l 32 764 b 251 986 32 907 115 986 "},"ŝ":{"ha":497,"x_min":0,"x_max":0,"o":"m 315 1028 l 254 1106 l 193 1028 l 85 1028 l 179 1181 l 329 1181 l 424 1028 m 251 986 b 471 768 392 986 471 907 l 471 743 l 329 729 l 329 765 b 254 850 329 821 303 850 b 179 765 206 850 179 821 l 179 753 b 303 564 179 696 204 647 b 488 253 438 450 488 369 l 488 204 b 260 -14 488 65 406 -14 b 32 204 114 -14 32 65 l 32 269 l 174 283 l 174 214 b 257 122 174 153 201 122 b 340 214 313 122 340 153 l 340 246 b 213 439 340 307 311 356 b 32 747 78 553 32 633 l 32 768 b 251 986 32 907 111 986 "},"ș":{"ha":497,"x_min":0,"x_max":0,"o":"m 251 986 b 471 768 392 986 471 907 l 471 743 l 329 729 l 329 765 b 254 850 329 821 303 850 b 179 765 206 850 179 821 l 179 753 b 303 564 179 696 204 647 b 488 253 438 450 488 369 l 488 204 b 260 -14 488 65 406 -14 b 32 204 114 -14 32 65 l 32 269 l 174 283 l 174 214 b 257 122 174 153 201 122 b 340 214 313 122 340 153 l 340 246 b 213 439 340 307 311 356 b 32 747 78 553 32 633 l 32 768 b 251 986 32 907 111 986 m 253 -283 l 183 -283 l 229 -183 l 183 -183 l 183 -56 l 325 -56 l 325 -171 "},"ß":{"ha":994,"x_min":0,"x_max":0,"o":"m 251 986 b 471 768 392 986 471 907 l 471 743 l 329 729 l 329 765 b 254 850 329 821 303 850 b 179 765 206 850 179 821 l 179 753 b 303 564 179 696 204 647 b 488 253 438 450 488 369 l 488 204 b 260 -14 488 65 406 -14 b 32 204 114 -14 32 65 l 32 269 l 174 283 l 174 214 b 257 122 174 153 201 122 b 340 214 313 122 340 153 l 340 246 b 213 439 340 307 311 356 b 32 747 78 553 32 633 l 32 768 b 251 986 32 907 111 986 m 749 986 b 968 768 889 986 968 907 l 968 743 l 826 729 l 826 765 b 751 850 826 821 800 850 b 676 765 703 850 676 821 l 676 753 b 800 564 676 696 701 647 b 985 253 935 450 985 369 l 985 204 b 757 -14 985 65 903 -14 b 529 204 611 -14 529 65 l 529 269 l 671 283 l 671 214 b 754 122 671 153 699 122 b 838 214 810 122 838 153 l 838 246 b 710 439 838 307 808 356 b 529 747 575 553 529 633 l 529 768 b 749 986 529 907 608 986 "},"t":{"ha":489,"x_min":0,"x_max":0,"o":"m 318 833 l 318 0 l 171 0 l 171 833 l 14 833 l 14 972 l 475 972 l 475 833 "},"ŧ":{"ha":489,"x_min":0,"x_max":0,"o":"m 318 833 l 318 549 l 422 549 l 422 421 l 318 421 l 318 0 l 171 0 l 171 421 l 67 421 l 67 549 l 171 549 l 171 833 l 14 833 l 14 972 l 475 972 l 475 833 "},"ť":{"ha":489,"x_min":0,"x_max":0,"o":"m 169 1028 l 75 1181 l 183 1181 l 244 1103 l 306 1181 l 414 1181 l 319 1028 m 318 833 l 318 0 l 171 0 l 171 833 l 14 833 l 14 972 l 475 972 l 475 833 "},"ţ":{"ha":489,"x_min":0,"x_max":0,"o":"m 318 833 l 318 0 l 279 0 l 279 -49 b 382 -122 349 -49 382 -72 b 242 -204 382 -178 338 -204 b 108 -118 154 -204 108 -175 l 108 -110 l 211 -104 l 211 -115 b 243 -149 211 -137 222 -149 b 275 -115 264 -149 275 -137 b 226 -74 275 -85 263 -74 l 213 -74 l 213 0 l 171 0 l 171 833 l 14 833 l 14 972 l 475 972 l 475 833 "},"ț":{"ha":489,"x_min":0,"x_max":0,"o":"m 318 833 l 318 0 l 171 0 l 171 833 l 14 833 l 14 972 l 475 972 l 475 833 m 243 -283 l 174 -283 l 219 -183 l 174 -183 l 174 -56 l 315 -56 l 315 -171 "},"u":{"ha":597,"x_min":0,"x_max":0,"o":"m 526 218 b 297 -14 526 65 439 -14 b 71 218 158 -14 71 65 l 71 972 l 213 972 l 213 222 b 296 125 213 151 244 125 b 379 222 347 125 379 151 l 379 972 l 526 972 "},"ú":{"ha":597,"x_min":0,"x_max":0,"o":"m 228 1028 l 308 1181 l 457 1181 l 336 1028 m 526 218 b 297 -14 526 65 439 -14 b 71 218 158 -14 71 65 l 71 972 l 213 972 l 213 222 b 296 125 213 151 244 125 b 379 222 347 125 379 151 l 379 972 l 526 972 "},"ŭ":{"ha":597,"x_min":0,"x_max":0,"o":"m 458 1181 b 299 1021 458 1079 400 1021 b 139 1181 197 1021 139 1079 l 233 1181 b 299 1124 233 1146 258 1124 b 364 1181 339 1124 364 1146 m 526 218 b 297 -14 526 65 439 -14 b 71 218 158 -14 71 65 l 71 972 l 213 972 l 213 222 b 296 125 213 151 244 125 b 379 222 347 125 379 151 l 379 972 l 526 972 "},"û":{"ha":597,"x_min":0,"x_max":0,"o":"m 360 1028 l 299 1106 l 238 1028 l 129 1028 l 224 1181 l 374 1181 l 468 1028 m 526 218 b 297 -14 526 65 439 -14 b 71 218 158 -14 71 65 l 71 972 l 213 972 l 213 222 b 296 125 213 151 244 125 b 379 222 347 125 379 151 l 379 972 l 526 972 "},"ü":{"ha":597,"x_min":0,"x_max":0,"o":"m 132 1038 l 132 1171 l 263 1171 l 263 1038 m 335 1038 l 335 1171 l 465 1171 l 465 1038 m 526 218 b 297 -14 526 65 439 -14 b 71 218 158 -14 71 65 l 71 972 l 213 972 l 213 222 b 296 125 213 151 244 125 b 379 222 347 125 379 151 l 379 972 l 526 972 "},"ù":{"ha":597,"x_min":0,"x_max":0,"o":"m 261 1028 l 140 1181 l 289 1181 l 369 1028 m 526 218 b 297 -14 526 65 439 -14 b 71 218 158 -14 71 65 l 71 972 l 213 972 l 213 222 b 296 125 213 151 244 125 b 379 222 347 125 379 151 l 379 972 l 526 972 "},"ű":{"ha":597,"x_min":0,"x_max":0,"o":"m 136 1028 l 217 1181 l 354 1181 l 233 1028 m 331 1028 l 411 1181 l 549 1181 l 428 1028 m 526 218 b 297 -14 526 65 439 -14 b 71 218 158 -14 71 65 l 71 972 l 213 972 l 213 222 b 296 125 213 151 244 125 b 379 222 347 125 379 151 l 379 972 l 526 972 "},"ū":{"ha":597,"x_min":0,"x_max":0,"o":"m 165 1060 l 165 1149 l 432 1149 l 432 1060 m 526 218 b 297 -14 526 65 439 -14 b 71 218 158 -14 71 65 l 71 972 l 213 972 l 213 222 b 296 125 213 151 244 125 b 379 222 347 125 379 151 l 379 972 l 526 972 "},"ų":{"ha":597,"x_min":0,"x_max":0,"o":"m 526 218 b 403 4 526 108 481 36 b 353 -74 364 -25 353 -53 b 397 -112 353 -100 371 -112 b 447 -97 415 -112 433 -107 l 454 -182 b 360 -204 422 -199 394 -204 b 239 -119 282 -204 239 -175 b 306 -17 239 -82 260 -47 l 306 -14 l 297 -14 b 71 218 158 -14 71 65 l 71 972 l 213 972 l 213 222 b 296 125 213 151 244 125 b 379 222 347 125 379 151 l 379 972 l 526 972 "},"ů":{"ha":597,"x_min":0,"x_max":0,"o":"m 299 1226 b 404 1119 360 1226 404 1182 b 299 1014 404 1058 360 1014 b 193 1119 238 1014 193 1058 b 299 1226 193 1182 238 1226 m 299 1163 b 260 1119 275 1163 260 1146 b 299 1078 260 1094 275 1078 b 338 1119 322 1078 338 1094 b 299 1163 338 1146 322 1163 m 526 218 b 297 -14 526 65 439 -14 b 71 218 158 -14 71 65 l 71 972 l 213 972 l 213 222 b 296 125 213 151 244 125 b 379 222 347 125 379 151 l 379 972 l 526 972 "},"ũ":{"ha":597,"x_min":0,"x_max":0,"o":"m 239 1172 b 304 1150 260 1172 275 1167 b 356 1131 332 1135 343 1131 b 411 1169 376 1131 392 1142 l 467 1118 b 358 1036 432 1058 401 1036 b 293 1058 338 1036 322 1042 b 242 1078 265 1074 254 1078 b 186 1039 221 1078 206 1067 l 131 1090 b 239 1172 165 1150 196 1172 m 526 218 b 297 -14 526 65 439 -14 b 71 218 158 -14 71 65 l 71 972 l 213 972 l 213 222 b 296 125 213 151 244 125 b 379 222 347 125 379 151 l 379 972 l 526 972 "},"v":{"ha":571,"x_min":0,"x_max":0,"o":"m 190 0 l 26 972 l 176 972 l 286 231 l 289 231 l 397 972 l 544 972 l 381 0 "},"w":{"ha":824,"x_min":0,"x_max":0,"o":"m 497 0 l 414 579 l 411 579 l 326 0 l 176 0 l 26 972 l 178 972 l 263 328 l 265 328 l 349 972 l 479 972 l 563 328 l 565 328 l 650 972 l 797 972 l 647 0 "},"ẃ":{"ha":824,"x_min":0,"x_max":0,"o":"m 342 1028 l 422 1181 l 571 1181 l 450 1028 m 497 0 l 414 579 l 411 579 l 326 0 l 176 0 l 26 972 l 178 972 l 263 328 l 265 328 l 349 972 l 479 972 l 563 328 l 565 328 l 650 972 l 797 972 l 647 0 "},"ŵ":{"ha":824,"x_min":0,"x_max":0,"o":"m 474 1028 l 413 1106 l 351 1028 l 243 1028 l 338 1181 l 488 1181 l 582 1028 m 497 0 l 414 579 l 411 579 l 326 0 l 176 0 l 26 972 l 178 972 l 263 328 l 265 328 l 349 972 l 479 972 l 563 328 l 565 328 l 650 972 l 797 972 l 647 0 "},"ẅ":{"ha":824,"x_min":0,"x_max":0,"o":"m 246 1038 l 246 1171 l 376 1171 l 376 1038 m 449 1038 l 449 1171 l 579 1171 l 579 1038 m 497 0 l 414 579 l 411 579 l 326 0 l 176 0 l 26 972 l 178 972 l 263 328 l 265 328 l 349 972 l 479 972 l 563 328 l 565 328 l 650 972 l 797 972 l 647 0 "},"ẁ":{"ha":824,"x_min":0,"x_max":0,"o":"m 375 1028 l 254 1181 l 403 1181 l 483 1028 m 497 0 l 414 579 l 411 579 l 326 0 l 176 0 l 26 972 l 178 972 l 263 328 l 265 328 l 349 972 l 479 972 l 563 328 l 565 328 l 650 972 l 797 972 l 647 0 "},"x":{"ha":571,"x_min":0,"x_max":0,"o":"m 558 0 l 403 0 l 282 342 l 279 342 l 165 0 l 13 0 l 199 504 l 24 972 l 179 972 l 288 663 l 290 663 l 394 972 l 547 972 l 372 499 "},"y":{"ha":522,"x_min":0,"x_max":0,"o":"m 336 0 l 189 0 l 189 440 l -15 972 l 140 972 l 264 628 l 267 628 l 385 972 l 538 972 l 336 439 "},"ý":{"ha":522,"x_min":0,"x_max":0,"o":"m 190 1028 l 271 1181 l 419 1181 l 299 1028 m 336 0 l 189 0 l 189 440 l -15 972 l 140 972 l 264 628 l 267 628 l 385 972 l 538 972 l 336 439 "},"ŷ":{"ha":522,"x_min":0,"x_max":0,"o":"m 322 1028 l 261 1106 l 200 1028 l 92 1028 l 186 1181 l 336 1181 l 431 1028 m 336 0 l 189 0 l 189 440 l -15 972 l 140 972 l 264 628 l 267 628 l 385 972 l 538 972 l 336 439 "},"ÿ":{"ha":522,"x_min":0,"x_max":0,"o":"m 94 1038 l 94 1171 l 225 1171 l 225 1038 m 297 1038 l 297 1171 l 428 1171 l 428 1038 m 336 0 l 189 0 l 189 440 l -15 972 l 140 972 l 264 628 l 267 628 l 385 972 l 538 972 l 336 439 "},"ỳ":{"ha":522,"x_min":0,"x_max":0,"o":"m 224 1028 l 103 1181 l 251 1181 l 332 1028 m 336 0 l 189 0 l 189 440 l -15 972 l 140 972 l 264 628 l 267 628 l 385 972 l 538 972 l 336 439 "},"z":{"ha":486,"x_min":0,"x_max":0,"o":"m 186 136 l 457 136 l 457 0 l 26 0 l 26 122 l 297 836 l 40 836 l 40 972 l 457 972 l 457 850 "},"ź":{"ha":486,"x_min":0,"x_max":0,"o":"m 175 1028 l 256 1181 l 404 1181 l 283 1028 m 186 136 l 457 136 l 457 0 l 26 0 l 26 122 l 297 836 l 40 836 l 40 972 l 457 972 l 457 850 "},"ž":{"ha":486,"x_min":0,"x_max":0,"o":"m 171 1028 l 76 1181 l 185 1181 l 246 1103 l 307 1181 l 415 1181 l 321 1028 m 186 136 l 457 136 l 457 0 l 26 0 l 26 122 l 297 836 l 40 836 l 40 972 l 457 972 l 457 850 "},"ż":{"ha":486,"x_min":0,"x_max":0,"o":"m 175 1032 l 175 1176 l 317 1176 l 317 1032 m 186 136 l 457 136 l 457 0 l 26 0 l 26 122 l 297 836 l 40 836 l 40 972 l 457 972 l 457 850 "},"ﬁ":{"ha":810,"x_min":0,"x_max":0,"o":"m 226 836 l 226 561 l 435 561 l 435 425 l 226 425 l 226 0 l 79 0 l 79 972 l 486 972 l 486 836 m 583 0 l 583 972 l 731 972 l 731 0 "},"ﬂ":{"ha":992,"x_min":0,"x_max":0,"o":"m 226 836 l 226 561 l 435 561 l 435 425 l 226 425 l 226 0 l 79 0 l 79 972 l 486 972 l 486 836 m 976 139 l 976 0 l 583 0 l 583 972 l 731 972 l 731 139 "},"ª":{"ha":367,"x_min":0,"x_max":0,"o":"m 174 986 b 314 843 263 986 314 933 l 314 551 l 247 551 l 239 597 l 236 597 b 144 544 219 561 186 544 b 28 661 76 544 28 589 l 28 679 b 165 804 28 757 81 804 l 219 804 l 219 847 b 171 900 219 881 201 900 b 122 844 140 900 122 881 l 122 836 l 33 840 l 33 846 b 174 986 33 935 86 986 m 171 726 b 122 683 140 726 122 710 l 122 667 b 167 628 122 642 139 628 b 219 686 200 628 219 649 l 219 726 m 28 363 l 28 447 l 314 447 l 314 363 "},"º":{"ha":392,"x_min":0,"x_max":0,"o":"m 196 986 b 340 836 288 986 340 931 l 340 694 b 196 544 340 600 288 544 b 51 694 104 544 51 600 l 51 836 b 196 986 51 931 104 986 m 196 900 b 144 840 163 900 144 879 l 144 690 b 196 631 144 651 163 631 b 247 690 229 631 247 651 l 247 840 b 196 900 247 879 229 900 m 51 363 l 51 447 l 340 447 l 340 363 "},"⁄":{"ha":167,"x_min":0,"x_max":0,"o":"m -137 -14 l 213 986 l 304 986 l -46 -14 "},"½":{"ha":768,"x_min":0,"x_max":0,"o":"m 135 -14 l 485 986 l 576 986 l 226 -14 m 124 400 l 124 828 l 15 828 l 15 899 b 153 972 89 901 132 925 l 224 972 l 224 400 m 601 586 b 743 449 690 586 743 535 l 743 426 b 669 236 743 369 728 328 l 576 92 l 743 92 l 743 0 l 460 0 l 460 81 l 592 288 b 643 429 632 349 643 382 l 643 442 b 600 496 643 479 629 496 b 556 428 567 496 556 476 l 556 397 l 460 401 l 460 442 b 601 586 460 531 513 586 "},"⅓":{"ha":788,"x_min":0,"x_max":0,"o":"m 135 -14 l 485 986 l 576 986 l 226 -14 m 124 400 l 124 828 l 15 828 l 15 899 b 153 972 89 901 132 925 l 224 972 l 224 400 m 610 586 b 754 438 701 586 754 531 l 754 410 b 696 301 754 357 735 321 l 696 299 b 761 174 740 278 761 235 l 761 135 b 613 -14 761 42 707 -14 b 464 135 518 -14 464 42 l 464 165 l 561 169 l 561 144 b 611 76 561 96 576 76 b 661 140 644 76 661 97 l 661 181 b 601 251 661 231 644 251 l 560 251 l 560 342 l 601 342 b 654 408 640 342 654 361 l 654 435 b 608 496 654 476 639 496 b 563 428 576 496 563 476 l 563 403 l 465 407 l 465 438 b 610 586 465 531 518 586 "},"⅔":{"ha":844,"x_min":0,"x_max":0,"o":"m 163 986 b 304 849 251 986 304 935 l 304 826 b 231 636 304 769 289 728 l 138 492 l 304 492 l 304 400 l 21 400 l 21 481 l 153 688 b 204 829 193 749 204 782 l 204 842 b 161 896 204 879 190 896 b 117 828 128 896 117 876 l 117 797 l 21 801 l 21 842 b 163 986 21 931 74 986 m 192 -14 l 542 986 l 633 986 l 283 -14 m 667 586 b 811 438 758 586 811 531 l 811 410 b 753 301 811 357 792 321 l 753 299 b 818 174 797 278 818 235 l 818 135 b 669 -14 818 42 764 -14 b 521 135 575 -14 521 42 l 521 165 l 618 169 l 618 144 b 668 76 618 96 633 76 b 718 140 701 76 718 97 l 718 181 b 658 251 718 231 701 251 l 617 251 l 617 342 l 658 342 b 711 408 697 342 711 361 l 711 435 b 665 496 711 476 696 496 b 619 428 633 496 619 476 l 619 403 l 522 407 l 522 438 b 667 586 522 531 575 586 "},"¼":{"ha":735,"x_min":0,"x_max":0,"o":"m 133 -14 l 483 986 l 575 986 l 225 -14 m 125 400 l 125 828 l 17 828 l 17 899 b 154 972 90 901 133 925 l 225 972 l 225 400 m 719 211 l 719 121 l 676 121 l 676 0 l 576 0 l 576 121 l 390 121 l 390 203 l 575 572 l 676 572 l 676 211 m 486 211 l 576 211 l 576 393 l 574 393 "},"¾":{"ha":811,"x_min":0,"x_max":0,"o":"m 172 986 b 317 838 264 986 317 931 l 317 810 b 258 701 317 757 297 721 l 258 699 b 324 574 303 678 324 635 l 324 535 b 175 386 324 442 269 386 b 26 535 81 386 26 442 l 26 565 l 124 569 l 124 544 b 174 476 124 496 139 476 b 224 540 207 476 224 497 l 224 581 b 164 651 224 631 207 651 l 122 651 l 122 742 l 164 742 b 217 808 203 742 217 761 l 217 835 b 171 896 217 876 201 896 b 125 828 139 896 125 876 l 125 803 l 28 807 l 28 838 b 172 986 28 931 81 986 m 210 -14 l 560 986 l 651 986 l 301 -14 m 796 211 l 796 121 l 753 121 l 753 0 l 653 0 l 653 121 l 467 121 l 467 203 l 651 572 l 753 572 l 753 211 m 563 211 l 653 211 l 653 393 l 650 393 "},"⅛":{"ha":794,"x_min":0,"x_max":0,"o":"m 135 -14 l 485 986 l 576 986 l 226 -14 m 124 400 l 124 828 l 15 828 l 15 899 b 153 972 89 901 132 925 l 224 972 l 224 400 m 617 586 b 764 438 708 586 764 529 l 764 410 b 704 301 764 357 744 321 l 704 299 b 769 174 747 278 769 235 l 769 135 b 617 -14 769 43 713 -14 b 464 135 521 -14 464 43 l 464 174 b 529 299 464 235 486 278 l 529 301 b 469 410 489 321 469 357 l 469 438 b 617 586 469 529 525 586 m 617 496 b 569 438 586 496 569 475 l 569 400 b 617 342 569 361 586 342 b 664 400 647 342 664 361 l 664 438 b 617 496 664 475 647 496 m 617 251 b 564 188 583 251 564 229 l 564 140 b 617 76 564 99 583 76 b 669 140 650 76 669 99 l 669 188 b 617 251 669 229 650 251 "},"⅜":{"ha":871,"x_min":0,"x_max":0,"o":"m 171 986 b 315 838 263 986 315 931 l 315 810 b 257 701 315 757 296 721 l 257 699 b 322 574 301 678 322 635 l 322 535 b 174 386 322 442 268 386 b 25 535 79 386 25 442 l 25 565 l 122 569 l 122 544 b 172 476 122 496 138 476 b 222 540 206 476 222 497 l 222 581 b 163 651 222 631 206 651 l 121 651 l 121 742 l 163 742 b 215 808 201 742 215 761 l 215 835 b 169 896 215 876 200 896 b 124 828 138 896 124 876 l 124 803 l 26 807 l 26 838 b 171 986 26 931 79 986 m 211 -14 l 561 986 l 653 986 l 303 -14 m 693 586 b 840 438 785 586 840 529 l 840 410 b 781 301 840 357 821 321 l 781 299 b 846 174 824 278 846 235 l 846 135 b 693 -14 846 43 789 -14 b 540 135 597 -14 540 43 l 540 174 b 606 299 540 235 563 278 l 606 301 b 546 410 565 321 546 357 l 546 438 b 693 586 546 529 601 586 m 693 496 b 646 438 663 496 646 475 l 646 400 b 693 342 646 361 663 342 b 740 400 724 342 740 361 l 740 438 b 693 496 740 475 724 496 m 693 251 b 640 188 660 251 640 229 l 640 140 b 693 76 640 99 660 76 b 746 140 726 76 746 99 l 746 188 b 693 251 746 229 726 251 "},"⅝":{"ha":869,"x_min":0,"x_max":0,"o":"m 210 -14 l 560 986 l 651 986 l 301 -14 m 197 785 b 322 636 275 785 322 729 l 322 535 b 175 386 322 442 268 386 b 28 535 82 386 28 442 l 28 553 l 125 557 l 125 543 b 172 476 125 496 140 476 b 222 540 207 476 222 499 l 222 631 b 174 694 222 672 206 694 b 126 651 147 694 129 679 l 125 638 l 33 640 l 53 972 l 300 972 l 300 879 l 138 879 l 132 765 l 135 765 b 197 785 149 778 169 785 m 692 586 b 839 438 783 586 839 529 l 839 410 b 779 301 839 357 819 321 l 779 299 b 844 174 822 278 844 235 l 844 135 b 692 -14 844 43 788 -14 b 539 135 596 -14 539 43 l 539 174 b 604 299 539 235 561 278 l 604 301 b 544 410 564 321 544 357 l 544 438 b 692 586 544 529 600 586 m 692 496 b 644 438 661 496 644 475 l 644 400 b 692 342 644 361 661 342 b 739 400 722 342 739 361 l 739 438 b 692 496 739 475 722 496 m 692 251 b 639 188 658 251 639 229 l 639 140 b 692 76 639 99 658 76 b 744 140 725 76 744 99 l 744 188 b 692 251 744 229 725 251 "},"⅞":{"ha":767,"x_min":0,"x_max":0,"o":"m 111 -14 l 461 986 l 553 986 l 203 -14 m 135 400 l 32 400 l 199 876 l 14 876 l 14 972 l 300 972 l 300 885 m 590 586 b 738 438 682 586 738 529 l 738 410 b 678 301 738 357 718 321 l 678 299 b 743 174 721 278 743 235 l 743 135 b 590 -14 743 43 686 -14 b 438 135 494 -14 438 43 l 438 174 b 503 299 438 235 460 278 l 503 301 b 443 410 463 321 443 357 l 443 438 b 590 586 443 529 499 586 m 590 496 b 543 438 560 496 543 475 l 543 400 b 590 342 543 361 560 342 b 638 400 621 342 638 361 l 638 438 b 590 496 638 475 621 496 m 590 251 b 538 188 557 251 538 229 l 538 140 b 590 76 538 99 557 76 b 643 140 624 76 643 99 l 643 188 b 590 251 643 229 624 251 "},"₀":{"ha":378,"x_min":0,"x_max":0,"o":"m 189 447 b 338 294 281 447 338 389 l 338 0 b 189 -153 338 -94 281 -153 b 40 0 97 -153 40 -94 l 40 294 b 189 447 40 389 97 447 m 189 357 b 140 294 157 357 140 336 l 140 0 b 189 -62 140 -42 157 -62 b 238 0 221 -62 238 -42 l 238 294 b 189 357 238 336 221 357 "},"₁":{"ha":272,"x_min":0,"x_max":0,"o":"m 124 -139 l 124 289 l 15 289 l 15 360 b 153 433 89 363 132 386 l 224 433 l 224 -139 "},"₂":{"ha":329,"x_min":0,"x_max":0,"o":"m 163 447 b 304 310 251 447 304 396 l 304 288 b 231 97 304 231 289 189 l 138 -47 l 304 -47 l 304 -139 l 21 -139 l 21 -58 l 153 149 b 204 290 193 210 204 243 l 204 303 b 161 357 204 340 190 357 b 117 289 128 357 117 338 l 117 258 l 21 263 l 21 303 b 163 447 21 392 74 447 "},"₃":{"ha":349,"x_min":0,"x_max":0,"o":"m 171 447 b 315 299 263 447 315 392 l 315 271 b 257 163 315 218 296 182 l 257 160 b 322 35 301 139 322 96 l 322 -4 b 174 -153 322 -97 268 -153 b 25 -4 79 -153 25 -97 l 25 26 l 122 31 l 122 6 b 172 -62 122 -43 138 -62 b 222 1 206 -62 222 -42 l 222 42 b 163 113 222 92 206 113 l 121 113 l 121 203 l 163 203 b 215 269 201 203 215 222 l 215 296 b 169 357 215 338 200 357 b 124 289 138 357 124 338 l 124 264 l 26 268 l 26 299 b 171 447 26 392 79 447 "},"₄":{"ha":357,"x_min":0,"x_max":0,"o":"m 340 72 l 340 -18 l 297 -18 l 297 -139 l 197 -139 l 197 -18 l 11 -18 l 11 64 l 196 433 l 297 433 l 297 72 m 107 72 l 197 72 l 197 254 l 194 254 "},"₅":{"ha":347,"x_min":0,"x_max":0,"o":"m 197 246 b 322 97 275 246 322 190 l 322 -4 b 175 -153 322 -97 268 -153 b 28 -4 82 -153 28 -97 l 28 14 l 125 18 l 125 4 b 172 -62 125 -43 140 -62 b 222 1 207 -62 222 -40 l 222 92 b 174 156 222 133 206 156 b 126 113 147 156 129 140 l 125 99 l 33 101 l 53 433 l 300 433 l 300 340 l 138 340 l 132 226 l 135 226 b 197 246 149 239 169 246 "},"₆":{"ha":371,"x_min":0,"x_max":0,"o":"m 188 447 b 333 304 279 447 333 394 l 333 279 l 235 275 l 235 292 b 188 357 235 338 221 357 b 140 300 156 357 140 339 l 140 196 l 143 196 b 217 221 158 208 183 221 b 338 74 283 221 338 171 l 338 0 b 189 -153 338 -94 281 -153 b 40 0 97 -153 40 -94 l 40 301 b 188 447 40 393 94 447 m 189 131 b 140 68 157 131 140 110 l 140 0 b 189 -62 140 -42 157 -62 b 238 0 221 -62 238 -42 l 238 68 b 189 131 238 110 221 131 "},"₇":{"ha":306,"x_min":0,"x_max":0,"o":"m 133 -139 l 31 -139 l 197 338 l 13 338 l 13 433 l 299 433 l 299 346 "},"₈":{"ha":356,"x_min":0,"x_max":0,"o":"m 178 447 b 325 299 269 447 325 390 l 325 271 b 265 163 325 218 306 182 l 265 160 b 331 35 308 139 331 96 l 331 -4 b 178 -153 331 -96 274 -153 b 25 -4 82 -153 25 -96 l 25 35 b 90 160 25 96 47 139 l 90 163 b 31 271 50 182 31 218 l 31 299 b 178 447 31 390 86 447 m 178 357 b 131 299 147 357 131 336 l 131 261 b 178 203 131 222 147 203 b 225 261 208 203 225 222 l 225 299 b 178 357 225 336 208 357 m 178 113 b 125 49 144 113 125 90 l 125 1 b 178 -62 125 -40 144 -62 b 231 1 211 -62 231 -40 l 231 49 b 178 113 231 90 211 113 "},"₉":{"ha":371,"x_min":0,"x_max":0,"o":"m 181 -153 b 35 -10 89 -153 35 -100 l 35 15 l 133 19 l 133 3 b 181 -62 133 -43 147 -62 b 228 -6 213 -62 228 -44 l 228 99 l 225 99 b 151 74 210 86 185 74 b 31 221 85 74 31 124 l 31 294 b 179 447 31 389 88 447 b 328 294 271 447 328 389 l 328 -7 b 181 -153 328 -99 274 -153 m 179 164 b 228 226 211 164 228 185 l 228 294 b 179 357 228 336 211 357 b 131 294 147 357 131 336 l 131 226 b 179 164 131 185 147 164 "},"⁰":{"ha":378,"x_min":0,"x_max":0,"o":"m 189 1125 b 338 972 281 1125 338 1067 l 338 678 b 189 525 338 583 281 525 b 40 678 97 525 40 583 l 40 972 b 189 1125 40 1067 97 1125 m 189 1035 b 140 972 157 1035 140 1014 l 140 678 b 189 615 140 636 157 615 b 238 678 221 615 238 636 l 238 972 b 189 1035 238 1014 221 1035 "},"¹":{"ha":272,"x_min":0,"x_max":0,"o":"m 124 539 l 124 967 l 15 967 l 15 1038 b 153 1111 89 1040 132 1064 l 224 1111 l 224 539 "},"²":{"ha":329,"x_min":0,"x_max":0,"o":"m 163 1125 b 304 988 251 1125 304 1074 l 304 965 b 231 775 304 908 289 867 l 138 631 l 304 631 l 304 539 l 21 539 l 21 619 l 153 826 b 204 968 193 888 204 921 l 204 981 b 161 1035 204 1018 190 1035 b 117 967 128 1035 117 1015 l 117 936 l 21 940 l 21 981 b 163 1125 21 1069 74 1125 "},"³":{"ha":349,"x_min":0,"x_max":0,"o":"m 171 1125 b 315 976 263 1125 315 1069 l 315 949 b 257 840 315 896 296 860 l 257 838 b 322 713 301 817 322 774 l 322 674 b 174 525 322 581 268 525 b 25 674 79 525 25 581 l 25 704 l 122 708 l 122 683 b 172 615 122 635 138 615 b 222 679 206 615 222 636 l 222 719 b 163 790 222 769 206 790 l 121 790 l 121 881 l 163 881 b 215 947 201 881 215 900 l 215 974 b 169 1035 215 1015 200 1035 b 124 967 138 1035 124 1015 l 124 942 l 26 946 l 26 976 b 171 1125 26 1069 79 1125 "},"⁴":{"ha":357,"x_min":0,"x_max":0,"o":"m 340 750 l 340 660 l 297 660 l 297 539 l 197 539 l 197 660 l 11 660 l 11 742 l 196 1111 l 297 1111 l 297 750 m 107 750 l 197 750 l 197 932 l 194 932 "},"⁵":{"ha":347,"x_min":0,"x_max":0,"o":"m 197 924 b 322 775 275 924 322 868 l 322 674 b 175 525 322 581 268 525 b 28 674 82 525 28 581 l 28 692 l 125 696 l 125 682 b 172 615 125 635 140 615 b 222 679 207 615 222 638 l 222 769 b 174 833 222 811 206 833 b 126 790 147 833 129 818 l 125 776 l 33 779 l 53 1111 l 300 1111 l 300 1018 l 138 1018 l 132 904 l 135 904 b 197 924 149 917 169 924 "},"⁶":{"ha":371,"x_min":0,"x_max":0,"o":"m 188 1125 b 333 982 279 1125 333 1072 l 333 957 l 235 953 l 235 969 b 188 1035 235 1015 221 1035 b 140 978 156 1035 140 1017 l 140 874 l 143 874 b 217 899 158 886 183 899 b 338 751 283 899 338 849 l 338 678 b 189 525 338 583 281 525 b 40 678 97 525 40 583 l 40 979 b 188 1125 40 1071 94 1125 m 189 808 b 140 746 157 808 140 788 l 140 678 b 189 615 140 636 157 615 b 238 678 221 615 238 636 l 238 746 b 189 808 238 788 221 808 "},"⁷":{"ha":306,"x_min":0,"x_max":0,"o":"m 133 539 l 31 539 l 197 1015 l 13 1015 l 13 1111 l 299 1111 l 299 1024 "},"⁸":{"ha":356,"x_min":0,"x_max":0,"o":"m 178 1125 b 325 976 269 1125 325 1068 l 325 949 b 265 840 325 896 306 860 l 265 838 b 331 713 308 817 331 774 l 331 674 b 178 525 331 582 274 525 b 25 674 82 525 25 582 l 25 713 b 90 838 25 774 47 817 l 90 840 b 31 949 50 860 31 896 l 31 976 b 178 1125 31 1068 86 1125 m 178 1035 b 131 976 147 1035 131 1014 l 131 939 b 178 881 131 900 147 881 b 225 939 208 881 225 900 l 225 976 b 178 1035 225 1014 208 1035 m 178 790 b 125 726 144 790 125 768 l 125 679 b 178 615 125 638 144 615 b 231 679 211 615 231 638 l 231 726 b 178 790 231 768 211 790 "},"⁹":{"ha":371,"x_min":0,"x_max":0,"o":"m 181 525 b 35 668 89 525 35 578 l 35 693 l 133 697 l 133 681 b 181 615 133 635 147 615 b 228 672 213 615 228 633 l 228 776 l 225 776 b 151 751 210 764 185 751 b 31 899 85 751 31 801 l 31 972 b 179 1125 31 1067 88 1125 b 328 972 271 1125 328 1067 l 328 671 b 181 525 328 579 274 525 m 179 842 b 228 904 211 842 228 863 l 228 972 b 179 1035 228 1014 211 1035 b 131 972 147 1035 131 1014 l 131 904 b 179 842 131 863 147 842 "},"*":{"ha":488,"x_min":0,"x_max":0,"o":"m 436 883 l 476 763 l 333 728 l 428 617 l 326 544 l 250 668 l 174 544 l 72 617 l 167 728 l 24 763 l 64 883 l 197 828 l 188 972 l 313 972 l 303 828 "},"\\":{"ha":522,"x_min":0,"x_max":0,"o":"m 376 -69 l 26 1042 l 146 1042 l 496 -69 "},"·":{"ha":314,"x_min":0,"x_max":0,"o":"m 79 408 l 79 564 l 235 564 l 235 408 "},"•":{"ha":611,"x_min":0,"x_max":0,"o":"m 306 694 b 514 486 425 694 514 606 b 306 278 514 367 425 278 b 97 486 186 278 97 367 b 306 694 97 606 186 694 "},":":{"ha":314,"x_min":0,"x_max":0,"o":"m 81 556 l 81 711 l 236 711 l 236 556 m 81 0 l 81 156 l 236 156 l 236 0 "},",":{"ha":314,"x_min":0,"x_max":0,"o":"m 156 -156 l 79 -156 l 129 0 l 79 0 l 79 156 l 235 156 l 235 14 "},"…":{"ha":1111,"x_min":0,"x_max":0,"o":"m 107 0 l 107 156 l 263 156 l 263 0 m 478 0 l 478 156 l 633 156 l 633 0 m 849 0 l 849 156 l 1004 156 l 1004 0 "},"!":{"ha":314,"x_min":0,"x_max":0,"o":"m 94 242 l 78 972 l 236 972 l 219 242 m 79 0 l 79 156 l 235 156 l 235 0 "},"¡":{"ha":314,"x_min":0,"x_max":0,"o":"m 233 972 l 233 817 l 78 817 l 78 972 m 218 731 l 235 0 l 76 0 l 93 731 "},"#":{"ha":675,"x_min":0,"x_max":0,"o":"m 636 735 l 622 606 l 531 606 l 506 374 l 597 374 l 585 244 l 493 244 l 467 0 l 342 0 l 368 244 l 256 244 l 229 0 l 104 0 l 131 244 l 39 244 l 51 374 l 143 374 l 168 606 l 76 606 l 90 735 l 182 735 l 207 972 l 332 972 l 307 735 l 419 735 l 444 972 l 569 972 l 544 735 m 268 374 l 381 374 l 406 606 l 293 606 "},".":{"ha":314,"x_min":0,"x_max":0,"o":"m 79 0 l 79 156 l 235 156 l 235 0 "},"?":{"ha":513,"x_min":0,"x_max":0,"o":"m 250 986 b 469 761 386 986 469 914 l 469 739 b 381 518 469 660 450 604 b 289 288 310 429 289 379 l 289 243 l 156 243 l 156 288 b 254 582 156 422 178 486 b 322 736 307 650 322 686 l 322 756 b 249 850 322 824 292 850 b 172 750 197 850 172 818 l 172 728 l 31 742 l 31 761 b 250 986 31 904 114 986 m 144 0 l 144 156 l 300 156 l 300 0 "},"¿":{"ha":513,"x_min":0,"x_max":0,"o":"m 368 972 l 368 817 l 213 817 l 213 972 m 263 -14 b 43 211 126 -14 43 58 l 43 233 b 132 454 43 313 63 368 b 224 685 203 543 224 593 l 224 729 l 357 729 l 357 685 b 258 390 357 550 335 486 b 190 236 206 322 190 286 l 190 217 b 264 122 190 149 221 122 b 340 222 315 122 340 154 l 340 244 l 482 231 l 482 211 b 263 -14 482 68 399 -14 "},"\"":{"ha":517,"x_min":0,"x_max":0,"o":"m 92 661 l 71 972 l 226 972 l 206 661 m 314 661 l 293 972 l 449 972 l 428 661 "},"'":{"ha":294,"x_min":0,"x_max":0,"o":"m 90 661 l 69 972 l 225 972 l 204 661 "},";":{"ha":314,"x_min":0,"x_max":0,"o":"m 81 556 l 81 711 l 236 711 l 236 556 m 157 -156 l 81 -156 l 131 0 l 81 0 l 81 156 l 236 156 l 236 14 "},"/":{"ha":522,"x_min":0,"x_max":0,"o":"m 26 -69 l 376 1042 l 496 1042 l 146 -69 "},"_":{"ha":611,"x_min":0,"x_max":0,"o":"m 0 -169 l 0 -69 l 611 -69 l 611 -169 "},"{":{"ha":414,"x_min":0,"x_max":0,"o":"m 360 867 b 268 772 290 867 268 842 l 268 611 b 194 488 268 550 244 508 l 194 485 b 268 361 244 464 268 422 l 268 200 b 360 106 268 131 290 106 l 360 0 l 317 0 b 121 192 181 0 121 51 l 121 347 b 39 433 121 410 100 433 l 39 539 b 121 625 100 539 121 563 l 121 781 b 317 972 121 921 181 972 l 360 972 "},"}":{"ha":414,"x_min":0,"x_max":0,"o":"m 53 106 b 144 200 122 106 144 131 l 144 361 b 218 485 144 422 168 464 l 218 488 b 144 611 168 508 144 550 l 144 772 b 53 867 144 842 122 867 l 53 972 l 96 972 b 292 781 232 972 292 921 l 292 625 b 374 539 292 563 313 539 l 374 433 b 292 347 313 433 292 410 l 292 192 b 96 0 292 51 232 0 l 53 0 "},"[":{"ha":414,"x_min":0,"x_max":0,"o":"m 240 867 l 240 106 l 360 106 l 360 0 l 93 0 l 93 972 l 360 972 l 360 867 "},"]":{"ha":414,"x_min":0,"x_max":0,"o":"m 172 106 l 172 867 l 53 867 l 53 972 l 319 972 l 319 0 l 53 0 l 53 106 "},"(":{"ha":414,"x_min":0,"x_max":0,"o":"m 379 972 b 219 486 272 831 219 671 b 379 0 219 301 272 142 l 235 0 b 72 486 128 124 72 289 b 235 972 72 683 128 849 "},")":{"ha":414,"x_min":0,"x_max":0,"o":"m 33 0 b 193 486 140 142 193 301 b 33 972 193 671 140 831 l 178 972 b 340 486 285 849 340 683 b 178 0 340 289 285 124 "},"—":{"ha":1111,"x_min":0,"x_max":0,"o":"m 42 429 l 42 543 l 1069 543 l 1069 429 "},"–":{"ha":611,"x_min":0,"x_max":0,"o":"m 42 429 l 42 543 l 569 543 l 569 429 "},"-":{"ha":407,"x_min":0,"x_max":0,"o":"m 56 414 l 56 556 l 351 556 l 351 414 "},"­":{"ha":407,"x_min":0,"x_max":0,"o":"m 56 414 l 56 556 l 351 556 l 351 414 "},"«":{"ha":603,"x_min":0,"x_max":0,"o":"m 47 528 l 275 701 l 275 549 l 189 486 l 275 424 l 275 271 l 47 444 m 311 528 l 539 701 l 539 549 l 453 486 l 539 424 l 539 271 l 311 444 "},"»":{"ha":603,"x_min":0,"x_max":0,"o":"m 292 444 l 64 271 l 64 424 l 150 486 l 64 549 l 64 701 l 292 528 m 556 444 l 328 271 l 328 424 l 414 486 l 328 549 l 328 701 l 556 528 "},"‹":{"ha":339,"x_min":0,"x_max":0,"o":"m 47 528 l 275 701 l 275 549 l 189 486 l 275 424 l 275 271 l 47 444 "},"›":{"ha":339,"x_min":0,"x_max":0,"o":"m 290 444 l 63 271 l 63 424 l 149 486 l 63 549 l 63 701 l 290 528 "},"„":{"ha":517,"x_min":0,"x_max":0,"o":"m 140 -156 l 64 -156 l 114 0 l 64 0 l 64 156 l 219 156 l 219 14 m 369 -156 l 293 -156 l 343 0 l 293 0 l 293 156 l 449 156 l 449 14 "},"“":{"ha":517,"x_min":0,"x_max":0,"o":"m 147 972 l 224 972 l 174 817 l 224 817 l 224 661 l 68 661 l 68 803 m 369 972 l 446 972 l 396 817 l 446 817 l 446 661 l 290 661 l 290 803 "},"”":{"ha":517,"x_min":0,"x_max":0,"o":"m 147 661 l 71 661 l 121 817 l 71 817 l 71 972 l 226 972 l 226 831 m 369 661 l 293 661 l 343 817 l 293 817 l 293 972 l 449 972 l 449 831 "},"‘":{"ha":294,"x_min":0,"x_max":0,"o":"m 147 972 l 224 972 l 174 817 l 224 817 l 224 661 l 68 661 l 68 803 "},"’":{"ha":294,"x_min":0,"x_max":0,"o":"m 147 661 l 71 661 l 121 817 l 71 817 l 71 972 l 226 972 l 226 831 "},"‚":{"ha":294,"x_min":0,"x_max":0,"o":"m 147 -156 l 71 -156 l 121 0 l 71 0 l 71 156 l 226 156 l 226 14 "}," ":{"ha":264,"x_min":0,"x_max":0,"o":""}," ":{"ha":264,"x_min":0,"x_max":0,"o":""},"¢":{"ha":597,"x_min":0,"x_max":0,"o":"m 390 599 b 307 711 390 676 361 711 b 224 613 253 711 224 676 l 224 360 b 307 261 224 296 253 261 b 390 374 361 261 390 296 l 390 413 l 532 406 l 532 358 b 361 131 532 232 469 151 l 361 29 l 244 29 l 244 131 b 76 358 138 151 76 232 l 76 614 b 244 842 76 740 138 821 l 244 929 l 361 929 l 361 842 b 532 614 469 821 532 740 l 532 596 l 390 589 "},"¤":{"ha":597,"x_min":0,"x_max":0,"o":"m 578 667 l 471 560 b 490 472 483 535 490 504 b 471 385 490 440 483 410 l 578 278 l 497 197 l 390 304 b 299 283 364 290 333 283 b 207 304 264 283 233 290 l 100 197 l 19 278 l 126 385 b 107 472 114 410 107 440 b 126 560 107 504 114 535 l 19 667 l 100 747 l 207 640 b 299 661 233 654 264 661 b 390 640 333 661 364 654 l 497 747 m 299 549 b 226 472 254 549 226 515 b 299 396 226 429 254 396 b 371 472 343 396 371 429 b 299 549 371 515 343 549 "},"$":{"ha":597,"x_min":0,"x_max":0,"o":"m 356 967 b 519 747 458 947 519 869 l 519 728 l 378 714 l 378 736 b 300 836 378 804 353 836 b 225 754 256 836 225 810 l 225 736 b 350 550 225 682 254 638 b 526 244 481 429 526 350 l 526 221 b 356 6 526 99 460 24 l 356 -96 l 239 -96 l 239 6 b 71 225 136 28 71 104 l 71 281 l 213 294 l 213 236 b 299 136 213 168 240 136 b 379 218 342 136 379 163 l 379 239 b 254 425 379 293 350 338 b 78 731 124 546 78 625 l 78 751 b 239 967 78 872 138 947 l 239 1054 l 356 1054 "},"€":{"ha":597,"x_min":0,"x_max":0,"o":"m 313 986 b 542 753 457 986 542 900 l 542 721 l 400 714 l 400 738 b 317 850 400 815 371 850 b 233 751 263 850 233 815 l 233 632 l 396 632 l 396 549 l 233 549 l 233 451 l 396 451 l 396 368 l 233 368 l 233 221 b 317 122 233 157 263 122 b 400 235 371 122 400 157 l 400 288 l 542 281 l 542 219 b 313 -14 542 72 457 -14 b 86 219 169 -14 86 72 l 86 368 l 39 368 l 39 451 l 86 451 l 86 549 l 39 549 l 39 632 l 86 632 l 86 753 b 313 986 86 900 169 986 "},"ƒ":{"ha":597,"x_min":0,"x_max":0,"o":"m 450 986 b 549 974 485 986 518 982 l 540 839 b 468 850 522 844 497 850 b 371 742 400 850 371 817 l 371 638 l 531 638 l 531 515 l 371 515 l 371 226 b 144 -14 371 71 297 -14 b 46 -1 110 -14 76 -10 l 54 133 b 126 122 72 128 97 122 b 224 231 194 122 224 156 l 224 515 l 78 515 l 78 638 l 224 638 l 224 746 b 450 986 224 901 297 986 "},"₹":{"ha":597,"x_min":0,"x_max":0,"o":"m 422 857 b 458 749 444 829 456 793 l 558 749 l 531 633 l 460 633 b 261 413 453 503 383 426 l 560 0 l 390 0 l 89 417 l 89 525 l 210 525 b 313 633 278 525 310 560 l 36 633 l 64 749 l 313 749 b 210 857 310 822 278 857 l 36 857 l 64 972 l 558 972 l 531 857 "},"£":{"ha":597,"x_min":0,"x_max":0,"o":"m 543 1 l 49 1 l 49 126 b 157 386 136 199 157 272 l 157 435 l 49 435 l 49 571 l 157 571 l 157 746 b 383 986 157 901 231 986 b 515 958 435 986 479 976 l 504 825 b 403 850 461 843 435 850 b 304 742 333 850 304 817 l 304 571 l 515 571 l 515 435 l 304 435 l 304 367 b 233 143 304 271 289 206 l 233 140 l 543 140 "},"¥":{"ha":597,"x_min":0,"x_max":0,"o":"m 522 472 l 522 372 l 374 372 l 374 278 l 522 278 l 522 178 l 374 178 l 374 0 l 226 0 l 226 178 l 78 178 l 78 278 l 226 278 l 226 372 l 78 372 l 78 472 l 217 472 l 25 972 l 181 972 l 301 636 l 304 636 l 419 972 l 572 972 l 383 472 "},"≈":{"ha":600,"x_min":0,"x_max":0,"o":"m 589 628 b 397 510 521 533 468 510 b 276 550 360 510 326 521 b 199 581 238 572 217 581 b 88 506 156 581 136 567 l 11 581 b 203 699 79 675 132 699 b 324 658 240 699 274 688 b 401 628 363 636 383 628 b 513 703 444 628 464 642 m 589 392 b 397 274 521 297 468 274 b 276 314 360 274 326 285 b 199 344 238 336 217 344 b 88 269 156 344 136 331 l 11 344 b 203 463 79 439 132 463 b 324 422 240 463 274 451 b 401 392 363 400 383 392 b 513 467 444 392 464 406 "},"~":{"ha":600,"x_min":0,"x_max":0,"o":"m 589 510 b 397 392 521 415 468 392 b 276 432 360 392 326 403 b 199 463 238 454 217 463 b 88 388 156 463 136 449 l 11 463 b 203 581 79 557 132 581 b 324 540 240 581 274 569 b 401 510 363 518 383 510 b 513 585 444 510 464 524 "},"∙":{"ha":314,"x_min":0,"x_max":0,"o":"m 79 408 l 79 564 l 235 564 l 235 408 "},"÷":{"ha":597,"x_min":0,"x_max":0,"o":"m 228 640 l 228 782 l 369 782 l 369 640 m 28 429 l 28 543 l 569 543 l 569 429 m 228 190 l 228 332 l 369 332 l 369 190 "},"=":{"ha":597,"x_min":0,"x_max":0,"o":"m 28 547 l 28 661 l 569 661 l 569 547 m 28 311 l 28 425 l 569 425 l 569 311 "},">":{"ha":597,"x_min":0,"x_max":0,"o":"m 569 431 l 28 207 l 28 333 l 404 485 l 28 639 l 28 765 l 569 539 "},"≥":{"ha":597,"x_min":0,"x_max":0,"o":"m 569 431 l 28 207 l 28 333 l 404 485 l 28 639 l 28 765 l 569 539 m 28 0 l 28 114 l 569 114 l 569 0 "},"∞":{"ha":890,"x_min":0,"x_max":0,"o":"m 861 707 l 861 500 l 678 500 l 678 436 b 354 83 678 219 549 83 b 43 393 171 83 43 206 b 397 707 43 576 165 707 l 460 707 l 460 868 l 678 868 l 678 707 m 396 500 b 268 393 313 500 268 457 b 358 299 268 335 303 299 b 460 432 419 299 460 344 l 460 500 "},"<":{"ha":597,"x_min":0,"x_max":0,"o":"m 193 485 l 569 333 l 569 207 l 28 431 l 28 539 l 569 765 l 569 639 "},"≤":{"ha":597,"x_min":0,"x_max":0,"o":"m 193 485 l 569 333 l 569 207 l 28 431 l 28 539 l 569 765 l 569 639 m 28 0 l 28 114 l 569 114 l 569 0 "},"¬":{"ha":597,"x_min":0,"x_max":0,"o":"m 456 199 l 456 429 l 28 429 l 28 543 l 569 543 l 569 199 "},"µ":{"ha":611,"x_min":0,"x_max":0,"o":"m 421 0 l 400 67 l 397 67 b 260 -14 369 14 321 -14 b 226 -11 247 -14 236 -14 l 226 -171 l 79 -171 l 79 572 l 226 572 l 226 218 b 306 122 226 149 257 122 b 385 218 354 122 385 149 l 385 572 l 532 572 l 532 0 "},"−":{"ha":597,"x_min":0,"x_max":0,"o":"m 28 429 l 28 543 l 569 543 l 569 429 "},"×":{"ha":597,"x_min":0,"x_max":0,"o":"m 379 486 l 560 303 l 479 222 l 299 406 l 118 222 l 38 303 l 218 486 l 38 669 l 118 750 l 299 567 l 479 750 l 560 669 "},"≠":{"ha":597,"x_min":0,"x_max":0,"o":"m 569 661 l 569 547 l 403 547 l 321 425 l 569 425 l 569 311 l 244 311 l 151 172 l 25 172 l 118 311 l 28 311 l 28 425 l 194 425 l 276 547 l 28 547 l 28 661 l 353 661 l 446 800 l 572 800 l 479 661 "},"%":{"ha":806,"x_min":0,"x_max":0,"o":"m 189 986 b 338 833 281 986 338 928 l 338 622 b 189 469 338 528 281 469 b 40 622 97 469 40 528 l 40 833 b 189 986 40 928 97 986 m 126 -14 l 588 986 l 679 986 l 218 -14 m 189 896 b 140 833 157 896 140 875 l 140 622 b 189 560 140 581 157 560 b 238 622 221 560 238 581 l 238 833 b 189 896 238 875 221 896 m 617 503 b 765 350 708 503 765 444 l 765 139 b 617 -14 765 44 708 -14 b 468 139 525 -14 468 44 l 468 350 b 617 503 468 444 525 503 m 617 413 b 568 350 585 413 568 392 l 568 139 b 617 76 568 97 585 76 b 665 139 649 76 665 97 l 665 350 b 617 413 665 392 649 413 "},"‰":{"ha":1165,"x_min":0,"x_max":0,"o":"m 189 986 b 338 833 281 986 338 928 l 338 622 b 189 469 338 528 281 469 b 40 622 97 469 40 528 l 40 833 b 189 986 40 928 97 986 m 126 -14 l 588 986 l 679 986 l 218 -14 m 189 896 b 140 833 157 896 140 875 l 140 622 b 189 560 140 581 157 560 b 238 622 221 560 238 581 l 238 833 b 189 896 238 875 221 896 m 617 503 b 765 350 708 503 765 444 l 765 139 b 617 -14 765 44 708 -14 b 468 139 525 -14 468 44 l 468 350 b 617 503 468 444 525 503 m 976 503 b 1125 350 1068 503 1125 444 l 1125 139 b 976 -14 1125 44 1068 -14 b 828 139 885 -14 828 44 l 828 350 b 976 503 828 444 885 503 m 617 413 b 568 350 585 413 568 392 l 568 139 b 617 76 568 97 585 76 b 665 139 649 76 665 97 l 665 350 b 617 413 665 392 649 413 m 976 413 b 928 350 944 413 928 392 l 928 139 b 976 76 928 97 944 76 b 1025 139 1008 76 1025 97 l 1025 350 b 976 413 1025 392 1008 413 "},"+":{"ha":597,"x_min":0,"x_max":0,"o":"m 569 543 l 569 429 l 356 429 l 356 199 l 242 199 l 242 429 l 28 429 l 28 543 l 242 543 l 242 774 l 356 774 l 356 543 "},"±":{"ha":597,"x_min":0,"x_max":0,"o":"m 569 543 l 569 429 l 356 429 l 356 199 l 242 199 l 242 429 l 28 429 l 28 543 l 242 543 l 242 774 l 356 774 l 356 543 m 28 0 l 28 114 l 569 114 l 569 0 "},"|":{"ha":326,"x_min":0,"x_max":0,"o":"m 107 -208 l 107 1181 l 219 1181 l 219 -208 "},"¦":{"ha":326,"x_min":0,"x_max":0,"o":"m 107 625 l 107 1181 l 219 1181 l 219 625 m 107 -208 l 107 347 l 219 347 l 219 -208 "},"@":{"ha":1025,"x_min":0,"x_max":0,"o":"m 525 986 b 986 532 793 986 986 807 b 760 231 986 350 906 231 b 621 314 689 231 643 257 l 618 314 b 472 231 585 257 538 231 b 311 417 368 231 311 294 l 311 554 b 472 742 311 678 368 742 b 607 667 531 742 575 717 l 610 667 l 617 725 l 718 725 l 718 422 b 772 346 718 371 735 346 b 864 519 833 346 864 415 b 526 867 864 738 725 867 b 174 472 311 867 174 713 b 543 106 174 253 319 106 b 767 168 626 106 704 126 l 813 61 b 540 -14 740 11 646 -14 b 43 472 246 -14 43 186 b 525 986 43 781 236 986 m 504 625 b 442 540 461 625 442 597 l 442 431 b 504 347 442 374 461 347 b 588 415 542 347 568 368 l 588 557 b 504 625 568 604 542 625 "},"&":{"ha":665,"x_min":0,"x_max":0,"o":"m 281 986 b 488 775 415 986 488 907 l 488 768 b 338 503 488 676 451 617 l 438 347 l 440 347 l 440 490 l 568 483 l 568 324 b 546 179 568 268 563 219 l 665 0 l 490 0 l 463 44 b 296 -14 421 4 365 -14 b 54 224 149 -14 54 69 l 54 258 b 161 511 54 346 82 421 b 74 763 94 622 74 686 l 74 771 b 281 986 74 911 146 986 m 282 850 b 215 768 240 850 215 822 l 215 761 b 264 614 215 722 228 683 l 267 614 b 349 764 329 683 349 718 l 349 771 b 282 850 349 821 325 850 m 239 390 b 201 260 211 339 201 303 l 201 238 b 303 122 201 157 243 122 b 389 157 338 122 367 133 l 242 390 "},"¶":{"ha":696,"x_min":0,"x_max":0,"o":"m 486 -139 l 486 849 l 389 849 l 389 -139 l 272 -139 l 272 467 l 268 467 b 46 690 124 467 46 546 l 46 749 b 268 972 46 894 124 972 l 603 972 l 603 -139 "},"©":{"ha":1031,"x_min":0,"x_max":0,"o":"m 515 986 b 988 486 799 986 988 786 b 515 -14 988 186 799 -14 b 43 486 232 -14 43 186 b 515 986 43 786 232 986 m 515 883 b 157 486 297 883 157 728 b 515 89 157 244 297 89 b 874 486 733 89 874 244 b 515 883 874 728 733 883 m 514 790 b 674 629 614 790 674 731 l 674 582 l 563 576 l 563 622 b 518 685 563 665 549 685 b 475 632 489 685 475 668 l 475 340 b 518 288 475 304 489 288 b 563 350 549 288 563 307 l 563 413 l 674 408 l 674 343 b 514 182 674 242 614 182 b 357 343 415 182 357 242 l 357 629 b 514 790 357 731 415 790 "},"®":{"ha":1031,"x_min":0,"x_max":0,"o":"m 515 986 b 988 486 799 986 988 786 b 515 -14 988 186 799 -14 b 43 486 232 -14 43 186 b 515 986 43 786 232 986 m 515 883 b 157 486 297 883 157 728 b 515 89 157 244 297 89 b 874 486 733 89 874 244 b 515 883 874 728 733 883 m 518 782 b 689 619 631 782 689 726 l 689 590 b 618 450 689 522 665 475 l 713 190 l 588 190 l 510 428 l 479 428 l 479 190 l 361 190 l 361 782 m 479 533 l 515 533 b 569 600 553 533 569 553 l 569 611 b 515 676 569 657 553 676 l 479 676 "},"℗":{"ha":1031,"x_min":0,"x_max":0,"o":"m 515 986 b 988 486 799 986 988 786 b 515 -14 988 186 799 -14 b 43 486 232 -14 43 186 b 515 986 43 786 232 986 m 515 883 b 157 486 297 883 157 728 b 515 89 157 244 297 89 b 874 486 733 89 874 244 b 515 883 874 728 733 883 m 532 782 b 704 617 646 782 704 726 l 704 588 b 532 422 704 478 646 422 l 494 422 l 494 190 l 375 190 l 375 782 m 494 528 l 529 528 b 583 594 567 528 583 547 l 583 611 b 529 676 583 657 567 676 l 494 676 "},"§":{"ha":564,"x_min":0,"x_max":0,"o":"m 272 986 b 508 765 418 986 508 903 l 508 756 l 375 742 l 375 763 b 279 858 375 824 339 858 b 192 786 225 858 192 831 l 192 774 b 321 658 192 728 219 703 b 521 428 471 593 521 535 l 521 407 b 424 240 521 335 485 278 l 424 238 b 511 68 488 192 511 142 l 511 43 b 292 -153 511 -79 428 -153 b 56 68 146 -153 56 -69 l 56 78 l 189 92 l 189 71 b 285 -25 189 10 225 -25 b 372 47 339 -25 372 3 l 372 60 b 243 175 372 106 344 131 b 43 406 93 240 43 299 l 43 426 b 140 593 43 499 79 556 l 140 596 b 53 765 76 642 53 692 l 53 790 b 272 986 53 913 136 986 m 257 533 b 182 440 211 517 182 481 l 182 414 b 307 300 182 368 208 343 b 382 393 353 317 382 353 l 382 419 b 257 533 382 465 356 490 "},"™":{"ha":786,"x_min":0,"x_max":0,"o":"m 201 881 l 201 436 l 103 436 l 103 881 l 13 881 l 13 972 l 293 972 l 293 881 m 608 436 l 608 764 l 606 764 l 546 514 l 490 514 l 431 764 l 428 764 l 428 436 l 333 436 l 333 972 l 460 972 l 518 726 l 521 726 l 578 972 l 707 972 l 707 436 "},"°":{"ha":386,"x_min":0,"x_max":0,"o":"m 193 986 b 346 833 282 986 346 922 b 193 681 346 744 282 681 b 40 833 104 681 40 744 b 193 986 40 922 104 986 m 193 894 b 136 833 158 894 136 871 b 193 772 136 796 158 772 b 250 833 228 772 250 796 b 193 894 250 871 228 894 "},"^":{"ha":597,"x_min":0,"x_max":0,"o":"m 438 576 l 300 829 l 161 576 l 25 576 l 246 972 l 354 972 l 574 576 "},"†":{"ha":586,"x_min":0,"x_max":0,"o":"m 363 706 l 554 715 l 554 576 l 363 586 l 363 -139 l 224 -139 l 224 586 l 32 576 l 32 715 l 224 706 l 224 972 l 363 972 "},"‡":{"ha":586,"x_min":0,"x_max":0,"o":"m 363 706 l 554 715 l 554 576 l 363 586 l 363 247 l 554 257 l 554 118 l 363 128 l 363 -139 l 224 -139 l 224 128 l 32 118 l 32 257 l 224 247 l 224 586 l 32 576 l 32 715 l 224 706 l 224 972 l 363 972 "},"´":{"ha":347,"x_min":0,"x_max":0,"o":"m 103 1028 l 183 1181 l 332 1181 l 211 1028 "},"˘":{"ha":347,"x_min":0,"x_max":0,"o":"m 333 1181 b 174 1021 333 1079 275 1021 b 14 1181 72 1021 14 1079 l 108 1181 b 174 1124 108 1146 133 1124 b 239 1181 214 1124 239 1146 "},"ˇ":{"ha":347,"x_min":0,"x_max":0,"o":"m 99 1028 l 4 1181 l 113 1181 l 174 1103 l 235 1181 l 343 1181 l 249 1028 "},"¸":{"ha":347,"x_min":0,"x_max":0,"o":"m 208 -49 b 311 -122 278 -49 311 -72 b 171 -204 311 -178 267 -204 b 38 -118 83 -204 38 -175 l 38 -110 l 140 -104 l 140 -115 b 172 -149 140 -137 151 -149 b 204 -115 193 -149 204 -137 b 156 -74 204 -85 192 -74 l 142 -74 l 142 19 l 208 19 "},"ˆ":{"ha":347,"x_min":0,"x_max":0,"o":"m 235 1028 l 174 1106 l 113 1028 l 4 1028 l 99 1181 l 249 1181 l 343 1028 "},"¨":{"ha":347,"x_min":0,"x_max":0,"o":"m 7 1038 l 7 1171 l 138 1171 l 138 1038 m 210 1038 l 210 1171 l 340 1171 l 340 1038 "},"˙":{"ha":347,"x_min":0,"x_max":0,"o":"m 103 1032 l 103 1176 l 244 1176 l 244 1032 "},"`":{"ha":347,"x_min":0,"x_max":0,"o":"m 136 1028 l 15 1181 l 164 1181 l 244 1028 "},"˝":{"ha":347,"x_min":0,"x_max":0,"o":"m 11 1028 l 92 1181 l 229 1181 l 108 1028 m 206 1028 l 286 1181 l 424 1181 l 303 1028 "},"¯":{"ha":347,"x_min":0,"x_max":0,"o":"m 40 1060 l 40 1149 l 307 1149 l 307 1060 "},"˛":{"ha":347,"x_min":0,"x_max":0,"o":"m 231 6 b 179 -74 190 -25 179 -53 b 224 -112 179 -100 197 -112 b 274 -97 242 -112 260 -107 l 281 -182 b 186 -204 249 -199 221 -204 b 65 -119 108 -204 65 -175 b 171 6 65 -72 97 -29 "},"˚":{"ha":347,"x_min":0,"x_max":0,"o":"m 174 1226 b 279 1119 235 1226 279 1182 b 174 1014 279 1058 235 1014 b 68 1119 113 1014 68 1058 b 174 1226 68 1182 113 1226 m 174 1163 b 135 1119 150 1163 135 1146 b 174 1078 135 1094 150 1078 b 213 1119 197 1078 213 1094 b 174 1163 213 1146 197 1163 "},"˜":{"ha":347,"x_min":0,"x_max":0,"o":"m 114 1172 b 179 1150 135 1172 150 1167 b 231 1131 207 1135 218 1131 b 286 1169 251 1131 267 1142 l 342 1118 b 233 1036 307 1058 276 1036 b 168 1058 213 1036 197 1042 b 117 1078 140 1074 129 1078 b 61 1039 96 1078 81 1067 l 6 1090 b 114 1172 40 1150 71 1172 "},"̦":{"ha":0,"x_min":0,"x_max":0,"o":"m 172 -283 l 103 -283 l 149 -183 l 103 -183 l 103 -56 l 244 -56 l 244 -171 "}}}
